<?xml version="1.0" encoding="UTF-8"?>
<svg width="160px" height="166px" viewBox="0 0 160 166" version="1.1" xmlns="http://www.w3.org/2000/svg" xmlns:xlink="http://www.w3.org/1999/xlink">
    <title>网页菜单</title>
    <defs>
        <linearGradient x1="100%" y1="12.6385756%" x2="32.6773932%" y2="64.230297%" id="linearGradient-1">
            <stop stop-color="#FFE9C3" offset="0%"></stop>
            <stop stop-color="#FFA447" offset="100%"></stop>
        </linearGradient>
        <linearGradient x1="45.6053384%" y1="57.0081088%" x2="33.2508959%" y2="111.054772%" id="linearGradient-2">
            <stop stop-color="#FFFFFF" stop-opacity="0" offset="0%"></stop>
            <stop stop-color="#FFFFFF" stop-opacity="0.721960535" offset="100%"></stop>
        </linearGradient>
        <linearGradient x1="115.1895%" y1="100%" x2="50%" y2="100%" id="linearGradient-3">
            <stop stop-color="#FFFFFF" stop-opacity="0.721960535" offset="0%"></stop>
            <stop stop-color="#FFFFFF" stop-opacity="0.626504111" offset="100%"></stop>
        </linearGradient>
        <linearGradient x1="100%" y1="48.6749594%" x2="0%" y2="51.3250406%" id="linearGradient-4">
            <stop stop-color="#FFFFFF" stop-opacity="0" offset="0%"></stop>
            <stop stop-color="#FFFFFF" stop-opacity="0.55453726" offset="100%"></stop>
        </linearGradient>
        <linearGradient x1="50%" y1="0%" x2="50%" y2="99.6059933%" id="linearGradient-5">
            <stop stop-color="#FFF4B3" stop-opacity="0.802054879" offset="0%"></stop>
            <stop stop-color="#FFF5AB" stop-opacity="0.6" offset="100%"></stop>
        </linearGradient>
        <linearGradient x1="43.522232%" y1="50%" x2="40.8461451%" y2="52.7980113%" id="linearGradient-6">
            <stop stop-color="#FFFFFF" stop-opacity="0" offset="0%"></stop>
            <stop stop-color="#FFFFFF" stop-opacity="0.721960535" offset="100%"></stop>
        </linearGradient>
        <linearGradient x1="50%" y1="0%" x2="50%" y2="100%" id="linearGradient-7">
            <stop stop-color="#FFFFFF" stop-opacity="0.525866955" offset="0%"></stop>
            <stop stop-color="#FFFFFF" stop-opacity="0.721960535" offset="100%"></stop>
        </linearGradient>
        <linearGradient x1="50%" y1="73.7012271%" x2="50%" y2="110.051373%" id="linearGradient-8">
            <stop stop-color="#FFFFFF" stop-opacity="0" offset="0%"></stop>
            <stop stop-color="#FFFFFF" offset="100%"></stop>
        </linearGradient>
    </defs>
    <g id="页面-1" stroke="none" stroke-width="1" fill="none" fill-rule="evenodd">
        <g id="毛玻璃质感图标" transform="translate(-281.000000, -472.000000)">
            <g id="网页菜单" transform="translate(281.000000, 472.000000)">
                <rect id="背景" fill="#304B68" x="0" y="0" width="160" height="166" rx="40"></rect>
                <g id="icon_网页菜单_常态" transform="translate(20.000000, 23.000000)">
                    <rect id="选中背景" x="0" y="0" width="120" height="120" rx="60"></rect>
                    <g id="编组-7" transform="translate(14.000000, 28.000000)">
                        <path d="M79,9.5 C81.0710678,9.5 82.9460678,10.3394661 84.3033009,11.6966991 C85.6605339,13.0539322 86.5,14.9289322 86.5,17 L86.5,17 L86.5,65 C86.5,67.0710678 85.6605339,68.9460678 84.3033009,70.3033009 C82.9460678,71.6605339 81.0710678,72.5 79,72.5 L79,72.5 L14,72.5 C11.9289322,72.5 10.0539322,71.6605339 8.69669914,70.3033009 C7.33946609,68.9460678 6.5,67.0710678 6.5,65 L6.5,65 L6.5,15 C6.5,13.4812169 7.11560847,12.1062169 8.1109127,11.1109127 C9.10621694,10.1156085 10.4812169,9.5 12,9.5 L12,9.5 Z" id="矩形" stroke="url(#linearGradient-2)" fill="url(#linearGradient-1)"></path>
                        <rect id="矩形" stroke="url(#linearGradient-4)" fill-opacity="0.69" fill="url(#linearGradient-3)" x="13.5" y="34.5" width="42" height="6" rx="3"></rect>
                        <rect id="矩形备份-9" stroke="url(#linearGradient-4)" fill-opacity="0.69" fill="url(#linearGradient-3)" x="13.5" y="47.5" width="42" height="6" rx="3"></rect>
                        <path d="M87,0.5 C88.5187831,0.5 89.8937831,1.11560847 90.8890873,2.1109127 C91.8843915,3.10621694 92.5,4.48121694 92.5,6 L92.5,6 L92.5,18 C92.5,18.9664983 92.1082492,19.8414983 91.4748737,20.4748737 C90.8414983,21.1082492 89.9664983,21.5 89,21.5 L89,21.5 L4,21.5 C3.03350169,21.5 2.15850169,21.1082492 1.52512627,20.4748737 C0.891750844,19.8414983 0.5,18.9664983 0.5,18 L0.5,18 L0.5,6 C0.5,4.48121694 1.11560847,3.10621694 2.1109127,2.1109127 C3.10621694,1.11560847 4.48121694,0.5 6,0.5 L6,0.5 Z" id="矩形" stroke="url(#linearGradient-6)" fill="url(#linearGradient-5)"></path>
                        <circle id="椭圆形" stroke="url(#linearGradient-8)" fill="url(#linearGradient-7)" cx="12.5" cy="11.5" r="4"></circle>
                        <circle id="椭圆形备份" stroke="url(#linearGradient-8)" fill="url(#linearGradient-7)" cx="26.5" cy="11.5" r="4"></circle>
                        <circle id="椭圆形备份-2" stroke="url(#linearGradient-8)" fill="url(#linearGradient-7)" cx="40.5" cy="11.5" r="4"></circle>
                    </g>
                </g>
            </g>
        </g>
    </g>
</svg>