<svg id="Layer_1" data-name="Layer 1" xmlns="http://www.w3.org/2000/svg" xmlns:xlink="http://www.w3.org/1999/xlink" viewBox="0 0 200 200"><defs><style>.cls-1,.cls-10,.cls-11,.cls-12,.cls-13,.cls-17,.cls-23,.cls-26,.cls-28,.cls-3,.cls-6,.cls-7,.cls-8,.cls-9{fill:none;}.cls-1{clip-rule:evenodd;}.cls-2{fill:#fff;}.cls-2,.cls-25,.cls-27,.cls-4,.cls-5{fill-rule:evenodd;}.cls-10,.cls-11,.cls-12,.cls-13,.cls-17,.cls-23,.cls-26,.cls-3,.cls-6{stroke:#231f20;}.cls-10,.cls-11,.cls-12,.cls-13,.cls-17,.cls-23,.cls-26,.cls-28,.cls-3,.cls-6,.cls-7,.cls-8,.cls-9{stroke-linecap:round;stroke-linejoin:round;}.cls-3{stroke-width:0.57px;}.cls-22,.cls-4{fill:#231f20;}.cls-5{fill:#f9d1e3;}.cls-6,.cls-8{stroke-width:0.57px;}.cls-7{stroke:red;}.cls-13,.cls-7{stroke-width:0.57px;}.cls-28,.cls-8,.cls-9{stroke:#fff;}.cls-9{stroke-width:0.57px;}.cls-10{stroke-width:0.57px;}.cls-11{stroke-width:0.57px;}.cls-12{stroke-width:0.06px;}.cls-14{fill:#0094d9;}.cls-15{clip-path:url(#clip-path);}.cls-16,.cls-25{fill:#f60;}.cls-17,.cls-28{stroke-width:0.57px;}.cls-18{clip-path:url(#clip-path-2);}.cls-19{clip-path:url(#clip-path-3);}.cls-20{clip-path:url(#clip-path-4);}.cls-21{clip-path:url(#clip-path-5);}.cls-23{stroke-width:0.57px;}.cls-24{clip-path:url(#clip-path-6);}.cls-26{stroke-width:0.57px;}</style><clipPath id="clip-path"><path class="cls-1" d="M79.42,173.81h-9c-9.85-14-7.3-33.33-1.68-46.75,7.15-17.1,6.41-17.29,2.69-30.82A13.69,13.69,0,0,1,72,87.43c1.25-3.22,4.08-5.62,7.18-5.73h.21c3.1.11,5.93,2.51,7.18,5.73a13.69,13.69,0,0,1,.57,8.81c-3.72,13.53-4.46,13.72,2.69,30.82,5.62,13.42,8.17,32.76-1.68,46.75Z"/></clipPath><clipPath id="clip-path-2"><path class="cls-1" d="M55.82,173.81h-9c-9.85-14-7.3-33.33-1.68-46.75,7.15-17.1,6.41-17.29,2.7-30.82a13.61,13.61,0,0,1,.56-8.81c1.25-3.22,4.08-5.62,7.19-5.73h.2c3.1.11,5.93,2.51,7.18,5.73a13.62,13.62,0,0,1,.57,8.81c-3.72,13.53-4.46,13.72,2.69,30.82,5.62,13.42,8.17,32.76-1.68,46.75Z"/></clipPath><clipPath id="clip-path-3"><path class="cls-1" d="M107,173.81H98c-9.85-14-7.29-33.33-1.68-46.75,7.16-17.1,6.42-17.29,2.7-30.82a13.62,13.62,0,0,1,.57-8.81c1.25-3.22,4.08-5.62,7.18-5.73h.2c3.1.11,5.93,2.51,7.18,5.73a13.62,13.62,0,0,1,.57,8.81c-3.72,13.53-4.46,13.72,2.7,30.82,5.61,13.42,8.17,32.76-1.68,46.75Z"/></clipPath><clipPath id="clip-path-4"><path class="cls-1" d="M87.6,173.81h-9c-9.85-14-7.29-33.33-1.68-46.75,7.16-17.1,6.42-17.29,2.7-30.82a13.62,13.62,0,0,1,.57-8.81c1.25-3.22,4.08-5.62,7.18-5.73h.2c3.1.11,5.93,2.51,7.18,5.73a13.62,13.62,0,0,1,.57,8.81c-3.72,13.53-4.46,13.72,2.7,30.82,5.61,13.42,8.17,32.76-1.68,46.75Z"/></clipPath><clipPath id="clip-path-5"><path class="cls-1" d="M74.1,173.81h-9c-9.85-14-7.3-33.33-1.68-46.75,7.15-17.1,6.41-17.29,2.69-30.82a13.62,13.62,0,0,1,.57-8.81C68,84.21,70.8,81.81,73.9,81.7h.2c3.11.11,5.94,2.51,7.19,5.73a13.68,13.68,0,0,1,.56,8.81c-3.71,13.53-4.46,13.72,2.7,30.82,5.61,13.42,8.17,32.76-1.68,46.75Z"/></clipPath><clipPath id="clip-path-6"><path class="cls-1" d="M111.84,154.68l0,.19,1.22,8.68c-12.49,11.7-32,11.85-46.07,8.14-17.93-4.71-18-3.95-30.89,1.6a13.61,13.61,0,0,1-8.81.66c-3.36-.79-6.14-3.26-6.66-6.32h0s0-.07,0-.1,0-.07,0-.1h0c-.33-3.09,1.66-6.22,4.67-7.91a13.66,13.66,0,0,1,8.65-1.78c13.91,1.81,14.2,2.52,30.15-6.94,12.51-7.42,31.31-12.63,46.53-4.81Z"/></clipPath></defs><path class="cls-2" d="M132.08,72.05c-1.82-3.67-4.79-2-5.27-.15-.39,1.5-2.69,1.49-3.09.61-.41-2.22-2.42-2.51-3.15-1.47-.55.26-1.58,4.22-1.68,5.06,0,.51-.4,4.84-.09,5.39,0,.06.15.3.16.34l11,9.39-1.28-8h8Z"/><path class="cls-3" d="M132.08,72.05c-1.82-3.67-4.79-2-5.27-.15-.39,1.5-2.69,1.49-3.09.61-.41-2.22-2.42-2.51-3.15-1.47-.55.26-1.58,4.22-1.68,5.06,0,.51-.4,4.84-.09,5.39,0,.06.15.3.16.34l11,9.39-1.28-8h8Z"/><polygon class="cls-4" points="143.14 122.23 149.34 134.78 166.53 143.64 151.44 167.78 147.04 164.78 133.04 132.05 143.14 122.23"/><path class="cls-4" d="M125.45,103.12c.39.16,11.44-2.69,14-3.53a37.92,37.92,0,0,1,3.75,3.06c5.89,5.75,5.14,13.78-.63,19.38l-9.9,9.62,10.23,24.4h-28.1L105.16,137c-1.12-2.47-3-8,1.52-12.6l15.14-17.79a30.87,30.87,0,0,0,3.63-3.48"/><path class="cls-5" d="M106,76.12c3,.27,3.2,1,5.42,3.33,4.53,4.67,14,21.62,14.6,23.69-3.14,6.74-12.14,3.86-13.54-3.66l-3.36-12.06C103.92,82.73,104.84,77.17,106,76.12Z"/><path class="cls-6" d="M106,76.12c3,.27,3.2,1,5.42,3.33,4.53,4.67,14,21.62,14.6,23.69-3.14,6.74-12.14,3.86-13.54-3.66l-3.36-12.06C103.92,82.73,104.84,77.17,106,76.12Z"/><path class="cls-5" d="M123,69.11c-.44-1.71.23-3.12,1.61-3.4a.92.92,0,0,1,1,.29l1.21,5.55c.28,1.46-2.55,2.17-3.15,1Z"/><path class="cls-6" d="M123,69.11c-.44-1.71.23-3.12,1.61-3.4a.92.92,0,0,1,1,.29l1.21,5.55c.28,1.46-2.55,2.17-3.15,1Z"/><path class="cls-2" d="M149.78,173.64l-7.16-17.58H119.25c.35,1.27,1,3-2,5.86-1.37,1.29-4.68,2.4-6.88,4-2,1.4-5,4.52-4.77,8h27.39l1.63-2.65,1.41,2.41Z"/><path class="cls-6" d="M149.78,173.64l-7.16-17.58H119.25c.35,1.27,1,3-2,5.86-1.37,1.29-4.68,2.4-6.88,4-2,1.4-5,4.52-4.77,8h27.39l1.63-2.65,1.41,2.41Z"/><line class="cls-6" x1="106.04" y1="170.79" x2="148.49" y2="170.79"/><path class="cls-2" d="M137.34,158.07a2.3,2.3,0,1,1-2.29,2.3A2.3,2.3,0,0,1,137.34,158.07Z"/><path class="cls-7" d="M137.34,158.07a2.3,2.3,0,1,1-2.29,2.3A2.3,2.3,0,0,1,137.34,158.07Z"/><path class="cls-6" d="M114.15,163.76c2.21,0,6.5,6,6.34,7"/><path class="cls-6" d="M118,166.62c4.16-.9,8.42-5.7,7.39-10.56"/><polyline class="cls-8" points="127.4 128.42 132.96 131.65 127.01 133.21"/><polyline class="cls-9" points="143.41 137 149.38 134.61 146.94 140.26"/><path class="cls-8" d="M143.74,104.65h-5.2c2.33,2.29,2.73,5.65,2.26,8.79-.05.3-.39,1.25-.39,1.3l2.83,5"/><line class="cls-10" x1="128.13" y1="80.33" x2="128.53" y2="82.85"/><line class="cls-6" x1="122.74" y1="80.34" x2="122.62" y2="83.51"/><path class="cls-5" d="M118,61.47a4,4,0,0,1,2.44-2.31c2.61-.47,5.15.3,5.93,3.41a5.64,5.64,0,0,1-2.8,5.75C119.42,70.26,115.68,65.9,118,61.47Z"/><path class="cls-6" d="M118,61.47a4,4,0,0,1,2.44-2.31c2.61-.47,5.15.3,5.93,3.41a5.64,5.64,0,0,1-2.8,5.75C119.42,70.26,115.68,65.9,118,61.47Z"/><path class="cls-6" d="M121,66.12a2,2,0,0,0,1.68-.51,1.92,1.92,0,0,0,.48-1.34"/><path class="cls-11" d="M119.79,64.06a.75.75,0,0,1,1-.28L121,64"/><path class="cls-4" d="M120,62.29a.35.35,0,0,1,.34.35.34.34,0,1,1-.68,0A.35.35,0,0,1,120,62.29Z"/><path class="cls-12" d="M120,62.29a.35.35,0,0,1,.34.35.34.34,0,1,1-.68,0A.35.35,0,0,1,120,62.29Z"/><path class="cls-4" d="M121.91,62.29a.35.35,0,0,1,.34.35.34.34,0,0,1-.68,0A.35.35,0,0,1,121.91,62.29Z"/><path class="cls-12" d="M121.91,62.29a.35.35,0,0,1,.34.35.34.34,0,0,1-.68,0A.35.35,0,0,1,121.91,62.29Z"/><circle cx="113.34" cy="72.7" r="8.05"/><circle class="cls-13" cx="113.34" cy="72.7" r="8.05"/><circle class="cls-14" cx="113.34" cy="72.7" r="8.05"/><circle class="cls-13" cx="113.34" cy="72.7" r="8.05"/><path class="cls-4" d="M117.37,68.27a1,1,0,1,1-1,1,1,1,0,0,1,1-1"/><path class="cls-4" d="M114.85,69.25a1,1,0,1,1,0,1.91,1,1,0,0,1,0-1.91"/><path class="cls-4" d="M117.28,71a1,1,0,1,1-1,1,1,1,0,0,1,1-1"/><path class="cls-2" d="M166.23,143.85l-10.71,17.09,3.68,2.18a1.06,1.06,0,0,0-.62.09c-6.19,2.24-8.57,5.6-8.67,10.42h17.6l4.84-9.32-1.22-3,2.86.08,5.43-10.76Z"/><path class="cls-6" d="M166.23,143.85l-10.71,17.09,3.68,2.18a1.06,1.06,0,0,0-.62.09c-6.19,2.24-8.57,5.6-8.67,10.42h17.6l4.84-9.32-1.22-3,2.86.08,5.43-10.76Z"/><polyline class="cls-6" points="176.58 149.67 165.83 170.72 150.38 170.72"/><path class="cls-6" d="M159.2,163.12c1.43.79,5.86,4,6.63,7.6"/><path class="cls-6" d="M159,155.77c3.51,2.45,6.59,5.35,3.69,9.25-.08.11-.06.17-.19.19"/><path class="cls-5" d="M128.47,82.69l1.36,8.16-10.26-10c-1.22-1.39.56-5.34-1.27-6.54a1,1,0,0,0-1.59.71c-.24,1.24-.33,3.15-1,3.32-1,0-2.09-3.86-2.17-4.79-.16-1.76-2.14-1.25-2.44-.45a1.39,1.39,0,0,0-1.7.49A2,2,0,0,0,107.12,75c-1.7,4.37.28,8.91,5.6,11.4l9,12c5,6.58,10.29,7.23,13.93,5.49,2.94-1.4,6.82-5.83,2.84-16.1l-2-5.07Z"/><path class="cls-3" d="M128.47,82.69l1.36,8.16-10.26-10c-1.22-1.39.56-5.34-1.27-6.54a1,1,0,0,0-1.59.71c-.24,1.24-.33,3.15-1,3.32-1,0-2.09-3.86-2.17-4.79-.16-1.76-2.14-1.25-2.44-.45a1.39,1.39,0,0,0-1.7.49A2,2,0,0,0,107.12,75c-1.7,4.37.28,8.91,5.6,11.4l9,12c5,6.58,10.29,7.23,13.93,5.49,2.94-1.4,6.82-5.83,2.84-16.1l-2-5.07Z"/><path class="cls-6" d="M109.33,73.72a9.07,9.07,0,0,0-.07,5.55"/><path class="cls-6" d="M111.25,73c-.81,1.23-.16,4.14.46,5.43"/><line class="cls-6" x1="106.02" y1="65.94" x2="103.31" y2="64.08"/><line class="cls-6" x1="107.82" y1="63.36" x2="105.91" y2="60.46"/><line class="cls-6" x1="111.18" y1="62.98" x2="110.67" y2="60.13"/><path class="cls-2" d="M166.9,148.44a2.3,2.3,0,1,1-2.3,2.29A2.29,2.29,0,0,1,166.9,148.44Z"/><path class="cls-7" d="M166.9,148.44a2.3,2.3,0,1,1-2.3,2.29A2.29,2.29,0,0,1,166.9,148.44Z"/><path class="cls-2" d="M79.42,173.81h-9c-9.85-14-7.3-33.33-1.68-46.75,7.15-17.1,6.41-17.29,2.69-30.82A13.69,13.69,0,0,1,72,87.43c1.25-3.22,4.08-5.62,7.18-5.73h.21c3.1.11,5.93,2.51,7.18,5.73a13.69,13.69,0,0,1,.57,8.81c-3.72,13.53-4.46,13.72,2.69,30.82,5.62,13.42,8.17,32.76-1.68,46.75Z"/><g class="cls-15"><rect class="cls-16" x="69.98" y="99.88" width="17.96" height="6.77"/><rect class="cls-17" x="69.98" y="99.88" width="17.96" height="6.77"/><rect class="cls-16" x="69.98" y="110.47" width="17.96" height="6.77"/><rect class="cls-17" x="69.98" y="110.47" width="17.96" height="6.77"/></g><path class="cls-3" d="M79.43,173.81h-9c-9.85-14-7.29-33.33-1.68-46.75,7.16-17.11,6.41-17.29,2.7-30.82a13.61,13.61,0,0,1,.57-8.81c1.24-3.22,4.07-5.63,7.18-5.73h.2c3.1.1,5.93,2.51,7.18,5.73a13.61,13.61,0,0,1,.57,8.81c-3.72,13.53-4.46,13.71,2.69,30.82,5.62,13.42,8.18,32.76-1.68,46.75Z"/><path class="cls-2" d="M55.82,173.81h-9c-9.85-14-7.3-33.33-1.68-46.75,7.15-17.1,6.41-17.29,2.7-30.82a13.61,13.61,0,0,1,.56-8.81c1.25-3.22,4.08-5.62,7.19-5.73h.2c3.1.11,5.93,2.51,7.18,5.73a13.62,13.62,0,0,1,.57,8.81c-3.72,13.53-4.46,13.72,2.69,30.82,5.62,13.42,8.17,32.76-1.68,46.75Z"/><g class="cls-18"><rect class="cls-16" x="46.38" y="99.88" width="17.96" height="6.77"/><rect class="cls-17" x="46.38" y="99.88" width="17.96" height="6.77"/><rect class="cls-16" x="46.38" y="110.47" width="17.96" height="6.77"/><rect class="cls-17" x="46.38" y="110.47" width="17.96" height="6.77"/></g><path class="cls-3" d="M55.83,173.81h-9c-9.85-14-7.29-33.33-1.68-46.75,7.16-17.11,6.41-17.29,2.7-30.82a13.61,13.61,0,0,1,.57-8.81c1.24-3.22,4.07-5.63,7.18-5.73h.2c3.1.1,5.93,2.51,7.18,5.73a13.61,13.61,0,0,1,.57,8.81c-3.72,13.53-4.46,13.71,2.69,30.82,5.62,13.42,8.18,32.76-1.68,46.75Z"/><path class="cls-2" d="M107,173.81H98c-9.85-14-7.29-33.33-1.68-46.75,7.16-17.1,6.42-17.29,2.7-30.82a13.62,13.62,0,0,1,.57-8.81c1.25-3.22,4.08-5.62,7.18-5.73h.2c3.1.11,5.93,2.51,7.18,5.73a13.62,13.62,0,0,1,.57,8.81c-3.72,13.53-4.46,13.72,2.7,30.82,5.61,13.42,8.17,32.76-1.68,46.75Z"/><g class="cls-19"><rect class="cls-16" x="97.56" y="99.88" width="17.96" height="6.77"/><rect class="cls-17" x="97.56" y="99.88" width="17.96" height="6.77"/><rect class="cls-16" x="97.56" y="110.47" width="17.96" height="6.77"/><rect class="cls-17" x="97.56" y="110.47" width="17.96" height="6.77"/></g><path class="cls-3" d="M107,173.81H98c-9.86-14-7.3-33.33-1.68-46.75,7.15-17.11,6.41-17.29,2.69-30.82a13.61,13.61,0,0,1,.57-8.81c1.25-3.22,4.08-5.63,7.18-5.73h.2c3.11.1,5.94,2.51,7.18,5.73a13.61,13.61,0,0,1,.57,8.81c-3.71,13.53-4.46,13.71,2.7,30.82,5.61,13.42,8.17,32.76-1.68,46.75Z"/><path class="cls-2" d="M87.6,173.81h-9c-9.85-14-7.29-33.33-1.68-46.75,7.16-17.1,6.42-17.29,2.7-30.82a13.62,13.62,0,0,1,.57-8.81c1.25-3.22,4.08-5.62,7.18-5.73h.2c3.1.11,5.93,2.51,7.18,5.73a13.62,13.62,0,0,1,.57,8.81c-3.72,13.53-4.46,13.72,2.7,30.82,5.61,13.42,8.17,32.76-1.68,46.75Z"/><g class="cls-20"><rect class="cls-16" x="78.16" y="99.88" width="17.96" height="6.77"/><rect class="cls-17" x="78.16" y="99.88" width="17.96" height="6.77"/><rect class="cls-16" x="78.16" y="110.47" width="17.96" height="6.77"/><rect class="cls-17" x="78.16" y="110.47" width="17.96" height="6.77"/></g><path class="cls-3" d="M87.6,173.81h-9c-9.86-14-7.3-33.33-1.68-46.75,7.15-17.11,6.41-17.29,2.69-30.82a13.61,13.61,0,0,1,.57-8.81c1.25-3.22,4.08-5.63,7.18-5.73h.2c3.11.1,5.94,2.51,7.18,5.73a13.61,13.61,0,0,1,.57,8.81c-3.71,13.53-4.46,13.71,2.7,30.82,5.61,13.42,8.17,32.76-1.68,46.75Z"/><path class="cls-4" d="M88.36,87.33a.3.3,0,0,1,.29.3.29.29,0,0,1-.29.29.3.3,0,0,1-.3-.29A.31.31,0,0,1,88.36,87.33Z"/><path class="cls-12" d="M88.36,87.33a.3.3,0,0,1,.29.3.29.29,0,0,1-.29.29.3.3,0,0,1-.3-.29A.31.31,0,0,1,88.36,87.33Z"/><path class="cls-4" d="M90,87.33a.3.3,0,0,1,.29.3.3.3,0,0,1-.59,0A.3.3,0,0,1,90,87.33Z"/><path class="cls-12" d="M90,87.33a.3.3,0,0,1,.29.3.3.3,0,0,1-.59,0A.3.3,0,0,1,90,87.33Z"/><path class="cls-2" d="M74.1,173.81h-9c-9.85-14-7.3-33.33-1.68-46.75,7.15-17.1,6.41-17.29,2.69-30.82a13.62,13.62,0,0,1,.57-8.81C68,84.21,70.8,81.81,73.9,81.7h.2c3.11.11,5.94,2.51,7.19,5.73a13.68,13.68,0,0,1,.56,8.81c-3.71,13.53-4.46,13.72,2.7,30.82,5.61,13.42,8.17,32.76-1.68,46.75Z"/><g class="cls-21"><rect class="cls-16" x="64.66" y="99.88" width="17.96" height="6.77"/><rect class="cls-17" x="64.66" y="99.88" width="17.96" height="6.77"/><rect class="cls-16" x="64.66" y="110.47" width="17.96" height="6.77"/><rect class="cls-17" x="64.66" y="110.47" width="17.96" height="6.77"/></g><path class="cls-3" d="M74.1,173.81h-9c-9.85-14-7.3-33.33-1.68-46.75,7.15-17.11,6.41-17.29,2.69-30.82a13.68,13.68,0,0,1,.57-8.81C68,84.21,70.8,81.8,73.9,81.7h.21c3.1.1,5.93,2.51,7.18,5.73a13.61,13.61,0,0,1,.57,8.81c-3.72,13.53-4.46,13.71,2.69,30.82,5.62,13.42,8.17,32.76-1.68,46.75Z"/><path class="cls-3" d="M89.78,90.39c2,0,3.7,1.27,2.85,2.82-.53,1-1.77-.19-2.67-.19-1.1,0-2.86,1.66-3.7.69C84.9,92.13,87.79,90.39,89.78,90.39Z"/><path class="cls-4" d="M74.75,86.7a.3.3,0,0,1,0,.59.3.3,0,1,1,0-.59Z"/><path class="cls-12" d="M74.75,86.7a.3.3,0,0,1,0,.59.3.3,0,1,1,0-.59Z"/><circle class="cls-22" cx="76.4" cy="86.99" r="0.29"/><circle class="cls-12" cx="76.4" cy="86.99" r="0.29"/><path class="cls-3" d="M69.69,92.31a.93.93,0,0,0,1.51-.56c0-1,.69-2,1.76-.86s1.23-2.58,2.74-.82,1.92-.54,2.84.15c.36.28.08,1.24,1.18,1.25s.29,1.47.9,1.57"/><polyline class="cls-3" points="53.6 87.51 55.45 89.03 52.84 89.72"/><polyline class="cls-3" points="58.93 87.39 57.29 88.87 59.41 89.96"/><path class="cls-3" d="M58.73,92.8c-.89-1.34-1.49.1-2.28.13h-.16"/><path class="cls-23" d="M101,91.82c2.09-3.48,4.89,3.24,1.8,3.24C100.71,95.06,100.5,92.6,101,91.82Z"/><path class="cls-3" d="M103.18,87.35a2.36,2.36,0,0,0,1,1"/><path class="cls-3" d="M101.9,87.37a2.48,2.48,0,0,1-.86,1.16"/><path class="cls-2" d="M111.84,154.68l0,.19,1.22,8.68c-12.49,11.7-32,11.85-46.07,8.14-17.93-4.71-18-3.95-30.89,1.6a13.61,13.61,0,0,1-8.81.66c-3.36-.79-6.14-3.26-6.66-6.32h0s0-.07,0-.1,0-.07,0-.1h0c-.33-3.09,1.66-6.22,4.67-7.91a13.66,13.66,0,0,1,8.65-1.78c13.91,1.81,14.2,2.52,30.15-6.94,12.51-7.42,31.31-12.63,46.53-4.81Z"/><g class="cls-24"><path class="cls-25" d="M42.28,173.68c-.44-3.11-3.08-4.66-3.66-8.76-.53-3.81,1.56-6.21,1.17-9,2.23-.32,4.39-1.17,6.63-1.49.38,2.72-1.61,5.91-1.14,9.27.56,4,3.35,6.54,3.8,9.76C46.84,173.75,44.51,173.37,42.28,173.68Z"/><path class="cls-17" d="M42.28,173.68c-.44-3.11-3.08-4.66-3.66-8.76-.53-3.81,1.56-6.21,1.17-9,2.23-.32,4.39-1.17,6.63-1.49.38,2.72-1.61,5.91-1.14,9.27.56,4,3.35,6.54,3.8,9.76C46.84,173.75,44.51,173.37,42.28,173.68Z"/><path class="cls-25" d="M52.53,173c-.47-3.4-3.14-5.11-3.77-9.59s1.49-6.74,1.06-9.8l6.7-.94c.42,3-1.74,4.88-1.1,9.48.76,5.41,3.33,6.41,3.82,9.91Z"/><path class="cls-17" d="M52.53,173c-.47-3.4-3.14-5.11-3.77-9.59s1.49-6.74,1.06-9.8l6.7-.94c.42,3-1.74,4.88-1.1,9.48.76,5.41,3.33,6.41,3.82,9.91Z"/></g><path class="cls-26" d="M111.83,154.68l0,.2,1.22,8.68c-12.5,11.7-32,11.84-46.07,8.14-17.93-4.72-18-4-30.9,1.6a13.65,13.65,0,0,1-8.8.66c-3.36-.79-6.14-3.26-6.67-6.32h0a.38.38,0,0,1,0-.1s0-.07,0-.1h0c-.34-3.09,1.66-6.23,4.67-7.91a13.66,13.66,0,0,1,8.65-1.78c13.91,1.81,14.2,2.52,30.15-6.94,12.51-7.42,31.31-12.63,46.53-4.81Z"/><path class="cls-2" d="M110.19,146.08c1.8-.25,3.81,3.53,4.5,8.44s-.21,9.1-2,9.35-3.81-3.53-4.5-8.44S108.39,146.33,110.19,146.08Z"/><path class="cls-13" d="M110.19,146.08c1.8-.25,3.81,3.53,4.5,8.44s-.21,9.1-2,9.35-3.81-3.53-4.5-8.44S108.39,146.33,110.19,146.08Z"/><path class="cls-26" d="M34.59,164.12c-.44.09-1.78,2.19-2,2.73-.41,1.29-.83,1.82.53,2.31a1,1,0,0,0,1.28-.34c.95-1-.29-2.31-1.28-2.75"/><path class="cls-26" d="M32.54,167.14a11.77,11.77,0,0,0,1,.7"/><path class="cls-26" d="M27.52,168.22c.48-1.44.74-3.1,1.27-4.53,0-.08,0-.08,0-.13"/><path class="cls-26" d="M27.13,163.57c.61,1.06,1.26,2.11,1.88,3.16.3.51.58,1.14.93,1.71l.06.12"/><path class="cls-27" d="M131.84,67.83c-1.54-6.31-2.76-10.16-8.08-10.19-4.16,0-5.63,3.41-5.35,3.39h5.9l1.7,6.8Z"/><path class="cls-6" d="M131.84,67.83c-1.54-6.31-2.76-10.16-8.08-10.19-4.16,0-5.63,3.41-5.35,3.39h5.9l1.7,6.8Z"/><line class="cls-17" x1="129.83" y1="90.85" x2="131.49" y2="92.61"/><polyline class="cls-28" points="142.92 122.05 132.97 131.71 146.86 164.9"/></svg>