<?xml version="1.0" encoding="utf-8"?>
<!-- Generator: Adobe Illustrator 23.0.1, SVG Export Plug-In . SVG Version: 6.00 Build 0)  -->
<svg version="1.1" id="图层_1" xmlns="http://www.w3.org/2000/svg" xmlns:xlink="http://www.w3.org/1999/xlink" x="0px" y="0px"
	 viewBox="0 0 245 349" style="enable-background:new 0 0 245 349;" xml:space="preserve">
<style type="text/css">
	.st0{fill:#FF6FA3;}
	.st1{fill:#3F0605;}
	.st2{fill:#F5C6C6;}
	.st3{fill:#E8B5B5;}
	.st4{fill:#4DA5F4;}
	.st5{fill:#1B303D;}
	.st6{fill:#FF7002;}
	.st7{fill:#FFFFFF;}
	.st8{fill:#FF362A;}
	.st9{fill:#563333;}
	.st10{fill:#282125;}
	.st11{fill:#D6CBC4;}
	.st12{fill:none;stroke:#3F0605;stroke-width:4;stroke-linecap:round;stroke-linejoin:round;stroke-miterlimit:10;}
</style>
<g>
	<path class="st0" d="M118,76.4c0,0-5-5.8-3.3-11.2S123,64,123,64s-6-8.3-2.4-12.4s12,3.3,12,3.3s-0.7-7.4,5.3-7.9
		c6-0.5,4.6,6.7,9.6,10.3c5,3.6,1,16.5-2.2,20.6s-4.8,10-6.5,10c-1,0-0.2-4-0.2-4l-1.2-8.3L118,76.4z"/>
	<path class="st1" d="M138.8,88.3c-0.2,0-0.4-0.1-0.6-0.3c-0.6-0.7-0.2-3.2,0-4.1l-1.1-7.8L118,76.8c-0.1,0-0.2,0-0.3-0.1
		c-0.1-0.1-1.3-1.5-2.3-3.7c-1.4-2.9-1.7-5.6-1-7.9c0.5-1.4,1.3-2.3,2.4-2.7c1.7-0.6,3.7,0,5.1,0.6c-1.6-2.5-4.5-8.2-1.6-11.6
		c0.7-0.8,1.7-1.3,2.9-1.4c3.3-0.2,7.5,2.8,9.1,4.1c0-1.3,0.3-3.7,1.7-5.5c1-1.2,2.3-1.8,4-2c3.7-0.3,4.9,2.2,6.1,4.9
		c0.8,1.9,1.8,4,3.8,5.5c1.3,0.9,2.1,2.5,2.4,4.6c0.8,5.6-2.2,13.6-4.6,16.6c-1.5,1.8-2.5,4-3.5,5.9C140.9,86.5,140,88.3,138.8,88.3
		z M137.4,75.3c0.2,0,0.4,0.1,0.4,0.3l1.2,8.3c0,0,0,0.1,0,0.1c-0.3,1.6-0.4,3.2-0.2,3.5c0.7,0,1.6-1.9,2.6-3.8
		c0.9-1.8,2.1-4.1,3.6-6c2.2-2.8,5.1-10.6,4.4-16c-0.3-1.9-1-3.3-2.1-4.1c-2.2-1.6-3.2-3.8-4.1-5.8c-1.2-2.6-2.1-4.7-5.3-4.4
		c-1.5,0.1-2.6,0.7-3.5,1.7c-1.8,2.2-1.5,5.8-1.5,5.8c0,0.2-0.1,0.3-0.2,0.4c-0.1,0.1-0.3,0.1-0.4-0.1c-0.1,0-5.4-4.7-9.2-4.4
		c-1,0.1-1.7,0.4-2.3,1.1c-3.4,3.9,2.4,11.8,2.4,11.9c0.1,0.1,0.1,0.4,0,0.5c-0.1,0.1-0.3,0.2-0.5,0.1c0,0-3.4-2.1-5.7-1.3
		c-0.9,0.3-1.6,1.1-1.9,2.3c-1.5,4.6,2.4,9.8,3.1,10.7L137.4,75.3C137.4,75.3,137.4,75.3,137.4,75.3z"/>
	<path class="st2" d="M118.5,76c0,0-2.9,19.1,7.9,20c9.3,0.8,11.3-9.2,11.3-9.2l2.3-8.9C140.1,77.9,120.9,71.9,118.5,76z"/>
	<path class="st1" d="M127.4,96.5c-0.3,0-0.7,0-1.1,0c-2.3-0.2-4.2-1.2-5.6-3c-1.9-2.4-2.9-6-3-10.9c-0.1-3.6,0.3-6.5,0.3-6.6
		c0,0,0-0.1,0-0.1c1.1-1.9,5.2-2.1,12.1-0.8c5.1,1,9.9,2.5,9.9,2.5c0.2,0.1,0.3,0.3,0.3,0.5l-2.3,8.9c0,0.2-0.6,2.6-2.2,5
		C134.4,94.1,131.8,96.5,127.4,96.5z M118.8,76.2c-0.1,0.5-0.4,3.2-0.3,6.4c0.1,3.2,0.7,7.6,2.9,10.4c1.3,1.6,3,2.5,5,2.7
		c3.7,0.3,6.6-1.1,8.8-4.1c1.6-2.3,2.1-4.7,2.1-4.8c0,0,0,0,0,0l2.2-8.6c-1.2-0.4-5.3-1.5-9.5-2.4C123.8,74.6,119.8,74.7,118.8,76.2
		z"/>
	<path class="st1" d="M165.2,169c0,0,0.6,5.6-9,6.5c-9.6,0.9,3.8-15.1,3.8-15.1L165.2,169z"/>
	<path class="st3" d="M161.7,162.4l-6.2,14.8c0,0-20.7,0.4-26.1-1c-4.8-1.3-15-10-15-10s12.6-11.9,13.6-13.1
		C129,151.9,161.7,162.4,161.7,162.4z"/>
	<path class="st0" d="M117.1,74.2c0,0,0.7,3.8,5.8,3.4c5.2-0.3,7.9-0.7,7.9-0.7s3.3,0.7,2.6,2.9c-0.7,2.2-2.4,7.1-1.7,7.4
		c0.7,0.3,0.5,0.3,3.4-4.3s4.8-1.5,4.6-0.2c0,0,2.1-3.6-0.7-2.8l2.4-0.3v-2.8l-9.3-4.8L117.1,74.2z"/>
	<path class="st2" d="M136.1,81.4c0,0,3.8-2.4,3.8,1.4s-2.4,4.5-2.4,4.5"/>
	<path class="st1" d="M137.6,87.6c-0.2,0-0.3-0.1-0.4-0.3c-0.1-0.2,0.1-0.4,0.3-0.5c0.1,0,2.1-0.7,2.1-4.1c0-0.9-0.2-1.4-0.6-1.6
		c-0.7-0.4-2.1,0.3-2.6,0.6c-0.2,0.1-0.4,0.1-0.5-0.1c-0.1-0.2-0.1-0.4,0.1-0.5c0.2-0.1,2.1-1.3,3.4-0.6c0.7,0.4,1,1.1,1,2.3
		c0,4-2.6,4.8-2.7,4.8C137.7,87.6,137.7,87.6,137.6,87.6z"/>
	<path class="st2" d="M132.6,93.6l2.6,6.2c0,0-6.2-0.5-7.2,0s2.6,7.4,2.6,7.4l24.3-9.6c0,0-9.3-3.8-12.2-2.8l-4.6-7.9L132.6,93.6z"
		/>
	<path class="st4" d="M155.5,177.2l-37.3,13.9c0,0-16.9-2.9-26.1,8.3c-5,6.1,1,10.7,7,13.5c4.3,2,8.5,3.1,8.5,3.1l-10.2,8l-7.7,6
		c-2.9-1-5.9-2.5-9-4.4c-11.2-6.8-22.1-18.4-20.9-28.5c1.5-12.9,22.2-20,22.2-20c3.3,0.3,19.4-14.6,19.4-14.6s10.5,0.9,21.2,7.4
		C133.1,176.5,155.5,177.2,155.5,177.2z"/>
	<path class="st5" d="M99,212.9L97.3,224l-7.7,6c-2.9-1-5.9-2.5-9-4.4C84.7,221.7,99,212.9,99,212.9z"/>
	<path class="st1" d="M89.6,230.4c0,0-0.1,0-0.1,0c-6.9-2.4-14.8-7.6-20.7-13.4c-6.9-6.9-10.2-13.9-9.5-19.8
		c0.6-5.4,4.7-10.6,11.9-15.1c5.3-3.4,10.5-5.2,10.6-5.2c0.1,0,0.1,0,0.2,0c2.3,0.2,12.7-8.6,19.1-14.5c0.1-0.1,0.2-0.1,0.3-0.1
		c0.1,0,10.7,0.9,21.3,7.5c10.5,6.4,32.6,7.2,32.8,7.2c0.2,0,0.3,0.1,0.4,0.3c0,0.2-0.1,0.4-0.2,0.4l-37.3,13.9c-0.1,0-0.1,0-0.2,0
		c0,0-4.2-0.7-9.5-0.1c-4.8,0.6-11.6,2.5-16.3,8.2c-1.6,2-2.1,3.9-1.5,5.7c2.1,6.4,16.7,10.3,16.8,10.3c0.1,0,0.3,0.2,0.3,0.3
		c0,0.1,0,0.3-0.1,0.4l-17.9,13.9C89.8,230.4,89.7,230.4,89.6,230.4z M81.9,177.6c-0.6,0.2-5.5,2-10.4,5.1c-4.8,3-10.7,8-11.5,14.5
		c-0.7,5.7,2.6,12.5,9.3,19.2c5.7,5.7,13.4,10.8,20.2,13.2l17.1-13.3c-3.1-0.9-14.7-4.6-16.6-10.6c-0.7-2.1-0.1-4.3,1.7-6.5
		c4.9-5.9,11.8-7.8,16.8-8.5c5-0.6,8.9-0.1,9.6,0.1l35.5-13.2c-5.6-0.3-22.5-1.8-31.3-7.2c-9.7-6-19.4-7.2-20.8-7.3
		C99.3,165,85.5,177.6,81.9,177.6C81.9,177.6,81.9,177.6,81.9,177.6z"/>
	<path class="st2" d="M79.7,256.1c0,0-1,6.1-1.7,7.6s8.9,5.8,10.1,5.2c1.2-0.7,2.1-9.5,2.1-9.5L79.7,256.1z"/>
	<path class="st6" d="M78.5,262.1c-0.4-0.4-1-0.2-1.1,0.2c-0.9,2.4-3.3,8.2-4.7,10.3c-1.8,2.7-6.1,25.9,3.5,27.1
		c9.6,1.2,16.3-13.6,14.7-23.4c-1-6.1-1-9.1-0.8-10.4c0.1-0.4-0.3-0.7-0.7-0.6C87.6,265.9,83.1,266.6,78.5,262.1z"/>
	<path class="st7" d="M90.9,276.4c-1-6.1-1-9.1-0.8-10.4c0-0.4-0.3-0.7-0.7-0.6c-1.8,0.5-6.3,1.2-10.9-3.3c-0.4-0.3-1-0.2-1.1,0.2
		c-0.9,2.4-3.3,8.2-4.7,10.3c-1.8,2.7-6.1,25.9,3.5,27.1C85.8,301,92.5,286.2,90.9,276.4z M76.2,297.8c-8.4-1-3.6-21.4-2.6-24.1
		c1.1-2.8,4.5-10,4.5-10c5.5,6,10.9,3.3,11,3.3c0,0.1-0.8,2,0.5,10C91,285,84.6,298.8,76.2,297.8z"/>
	<path class="st1" d="M77.3,300.3c-0.4,0-0.7,0-1.1-0.1c-2-0.2-3.5-1.3-4.5-3.3c-3.6-6.6-0.6-21.7,0.7-24.4c1.1-2.4,3.8-8,4.7-10.3
		c0.1-0.3,0.4-0.6,0.8-0.7c0.4-0.1,0.7,0,1,0.3c0,0,0,0,0,0c1.5,1.5,5.5,4.7,10.5,3.2c0.3-0.1,0.6,0,0.9,0.2
		c0.2,0.2,0.4,0.5,0.3,0.8c-0.2,1.2-0.3,4.1,0.8,10.3c1.1,6.6-1.5,15.3-6.1,20.1C82.8,299,80.1,300.3,77.3,300.3z M78,262.3
		C78,262.3,78,262.3,78,262.3c-0.2,0-0.3,0.1-0.3,0.2c-0.9,2.3-3.6,8-4.7,10.4c-1,2.1-4.4,17.1-0.7,23.7c0.9,1.7,2.3,2.7,3.9,2.9
		c2.9,0.4,5.8-0.8,8.3-3.5c4.5-4.7,7-13.1,5.9-19.5c-1.1-6.3-0.9-9.3-0.8-10.6c0-0.1,0-0.1,0-0.1c0,0-0.1-0.1-0.1,0
		c-1,0.3-2.6,0.6-4.6,0.3c-2.4-0.4-4.6-1.6-6.7-3.6l0,0C78.2,262.3,78.1,262.3,78,262.3z"/>
	<path class="st7" d="M71.7,292.5c-0.1,0-0.1,0-0.1-0.1c-0.1-0.1-0.1-0.2,0-0.3c7.7-7.1,5.1-25,5-25.2c0-0.1,0.1-0.2,0.2-0.2
		c0.1,0,0.2,0.1,0.2,0.2c0,0,0.7,4.6,0.4,10c-0.3,5-1.4,11.8-5.6,15.5C71.8,292.4,71.8,292.5,71.7,292.5z"/>
	<path class="st7" d="M83.9,294.7c-0.1,0-0.2-0.1-0.2-0.1c-2.9-12,4.8-24.5,4.9-24.6c0.1-0.1,0.2-0.1,0.3-0.1
		c0.1,0.1,0.1,0.2,0.1,0.3c-0.1,0.1-7.7,12.5-4.8,24.3C84.1,294.6,84.1,294.7,83.9,294.7C84,294.7,83.9,294.7,83.9,294.7z"/>
	<path class="st1" d="M77.1,298.2c-0.3,0-0.6,0-0.9-0.1c-1.6-0.2-2.8-1-3.7-2.5c-1.8-3.1-1.7-8.5-1.2-12.4c0.5-4.5,1.6-8.6,2-9.7
		c1.1-2.8,4.4-9.9,4.5-10c0.1-0.1,0.2-0.2,0.3-0.2c0.1,0,0.3,0,0.3,0.1c5.2,5.7,10.3,3.3,10.6,3.2c0.1-0.1,0.3,0,0.4,0.1
		c0.1,0.1,0.2,0.3,0.1,0.4c0,0-0.8,2,0.5,9.8c1,5.6-1.6,13.4-5.8,17.9C82,297,79.5,298.2,77.1,298.2z M78.2,264.4
		c-0.8,1.7-3.3,7.1-4.2,9.4c-0.8,2-4.2,15.9-0.9,21.4c0.8,1.3,1.8,2,3.1,2.1c3.2,0.4,5.8-1.5,7.3-3.2c4-4.2,6.5-11.9,5.6-17.2
		c-0.9-5.6-0.8-8.3-0.7-9.4C86.9,268.1,82.5,268.8,78.2,264.4z"/>
	<path class="st4" d="M108.9,180.8c0,0,15.8,10.1,7.6,17.4s-18.7,13.9-25.6,24.4c-6,9.1-14.9,25.1-17,29c-0.3,0.5-0.1,1.1,0.4,1.4
		l19.2,10.6c0.7,0.4,1.6,0,1.8-0.8c1.4-5.2,6.2-22.1,14.1-28.9c9.3-8.1,34.4-21.5,40.1-35.6c5.7-14.1,6.2-21.2,6.2-21.2L108.9,180.8
		z"/>
	<path class="st1" d="M94,264.2c-0.3,0-0.5-0.1-0.8-0.2L74,253.4c-0.3-0.2-0.6-0.5-0.7-0.9c-0.1-0.4-0.1-0.7,0.1-1.1
		c2.5-4.5,11.1-20,17.1-29c5.1-7.8,12.2-13.5,19-19c2.4-1.9,4.6-3.7,6.7-5.5c2.1-1.9,2.6-3.9,1.6-6.6c-0.1-0.2,0-0.4,0.2-0.5
		c0.2-0.1,0.4,0,0.5,0.2c1.1,3,0.5,5.4-1.8,7.5c-2.1,1.9-4.4,3.7-6.7,5.5c-6.8,5.4-13.8,11-18.8,18.8c-5.9,9-14.5,24.5-17,29
		c-0.1,0.2-0.1,0.3-0.1,0.5s0.2,0.3,0.3,0.4l19.2,10.6c0.2,0.1,0.5,0.1,0.7,0c0.2-0.1,0.4-0.3,0.5-0.6c1.3-5.1,6.3-22.2,14.2-29.1
		c2.7-2.3,6.5-5,11-8.1c11.1-7.7,24.9-17.3,28.9-27.3c4.5-11.1,6-18.6,6.2-21c0-0.2,0.2-0.4,0.4-0.4c0.2,0,0.4,0.2,0.4,0.4
		c0,0.3-0.6,7.3-6.2,21.3c-4.1,10.2-18,19.9-29.2,27.7c-4.5,3.1-8.3,5.8-11,8.1c-7.7,6.7-12.6,23.7-13.9,28.7
		c-0.1,0.5-0.5,0.9-0.9,1.1C94.4,264.1,94.2,264.2,94,264.2z"/>
	<path class="st6" d="M124.7,100.3c0,0-10.1,3.8-18,13s-4.7,17.3-9.4,16.5c-4.1-0.7,0.3-16.5,0.3-16.5l-15.8,6c0,0-1,7.4-1.9,15.3
		c-0.3,3-0.1,9.7,1.9,12c3.6,4.3,15.3,6.9,22.2-1.2c6.9-8.1,22-18.7,22-18.7L124.7,100.3z"/>
	<path class="st1" d="M92.3,151.2C92.2,151.2,92.2,151.2,92.3,151.2c-4.5,0-8.8-1.7-10.9-4.2c-2.1-2.5-2.3-9.3-2-12.3
		c0.9-7.8,1.9-15.2,1.9-15.3c0-0.1,0.1-0.3,0.2-0.3l15.8-6c0.1-0.1,0.3,0,0.4,0.1c0.1,0.1,0.2,0.2,0.1,0.4c0,0-0.9,3.2-1.5,6.7
		c-1,5.7-0.5,7.9,0,8.8c0.2,0.3,0.5,0.5,0.8,0.5c1.9,0.2,2.3-1,3-4.1c0.8-3.2,1.9-7.6,6.1-12.3c4.1-4.5,10.4-10.4,17.8-13
		c4.4-1.5,7.1-1.1,7.2-1.1c0.1,0,0.2,0.1,0.3,0.2c0.1,0.1,0.1,0.2,0.1,0.3l-5.3,27.3c0,0.1-0.1,0.2-0.2,0.2
		c-0.2,0.1-15.2,10.7-21.9,18.7C101.2,149.3,97,151.2,92.3,151.2z M82,119.7c-0.2,1.3-1.1,8-1.9,15.1c-0.1,1.3-0.2,3.7,0.1,6.2
		c0.3,2.6,0.9,4.6,1.7,5.6c1.9,2.3,6.1,3.9,10.2,3.9c4.5,0,8.6-1.8,11.4-5.1c3.6-4.2,9.4-9.1,13.6-12.5c4.1-3.3,7.6-5.8,8.3-6.3
		l5.2-26.8c-0.9-0.1-3.2,0-6.5,1.1c-7.1,2.5-13.4,8.3-17.4,12.7c-4.1,4.5-5.1,8.8-5.9,12c-0.7,2.9-1.2,5-3.9,4.7
		c-0.6-0.1-1-0.4-1.4-0.9c-1.9-2.9,0.4-12.6,1.1-15.4L82,119.7z"/>
	<path class="st6" d="M164.4,124.2l1.4,29.1l-0.7,16.9c0,0-2.8-6.2-12.6-6c-9.8,0.2-25.5,6.5-30.1,6c-2.2-0.2-9.4,2-13.9,0.3
		c-5-1.9-7.2-7.7-7.2-7.7l23.4-62c0,0,3.8-1.3,6.4-1.1c0,0,2,4.2,9.4,2.6c7.4-1.5,4.9-7.6,4.9-7.6"/>
	<path class="st8" d="M122.8,156c-3.6-9.3,11.8-16.6,21.7-18.3c9.9-1.6,15.8,9,18,10.3c2.2,1.3,2.8,4.2,2.8,4.2l-0.2,6.6
		c0,0-18.5-12.8-25.5-11.8s-7.7,3.5-8.7,14.4c-0.3,3.4-6.3,0.2-11.8,2.7c-5.4,2.5-10.4,5.6-10.4,5.6l-7.7-6.5L122.8,156z"/>
	<path class="st1" d="M112.7,171.3c-1.5,0-3-0.2-4.3-0.7c-5.1-1.9-7.4-7.7-7.4-8c0-0.1,0-0.2,0-0.3l10-26.7c0.1-0.2,0.3-0.3,0.5-0.2
		c0.2,0.1,0.3,0.3,0.2,0.5l-10,26.6c0.4,0.9,2.6,5.7,6.9,7.4c2.9,1.1,7.1,0.5,10.2,0c1.6-0.2,2.9-0.4,3.6-0.4
		c2.1,0.2,6.4-1,11.5-2.4c6.2-1.7,13.1-3.6,18.5-3.7c7.4-0.1,10.9,3.3,12.2,5.1l0.6-15.6l-1.4-29c0-0.2,0.2-0.4,0.4-0.4
		c0.2,0,0.4,0.2,0.4,0.4l1.4,29.1c0,0,0,0,0,0l-0.7,16.9c0,0.2-0.1,0.3-0.3,0.4c-0.2,0-0.4-0.1-0.4-0.2c-0.1-0.2-2.8-6-12.2-5.8
		c-5.3,0.1-12.2,2-18.3,3.6c-5.2,1.4-9.6,2.6-11.8,2.4c-0.7-0.1-2,0.1-3.4,0.3C117.1,171,114.9,171.3,112.7,171.3z"/>
	<path class="st1" d="M137.5,103c-5.1,0-6.7-3.2-6.7-3.3c-0.1-0.2,0-0.4,0.2-0.5c0.2-0.1,0.4,0,0.5,0.2c0.1,0.2,2,4,9,2.6
		c2.3-0.5,3.8-1.4,4.5-2.8c1.1-2,0.2-4.3,0.2-4.3c-0.1-0.2,0-0.4,0.2-0.5c0.2-0.1,0.4,0,0.5,0.2c0,0.1,1,2.6-0.2,4.9
		c-0.9,1.6-2.5,2.7-5,3.2C139.5,102.9,138.4,103,137.5,103z"/>
	<path class="st6" d="M145.4,94.4c0,0,27.9,5.9,37,28.4s11.8,26.6,7.2,33.2c-6.7,9.6-34.1-6.4-34.1-6.4l6.3-11c0,0,6.1,4.6,7.7,3.3
		c2.8-2.3-5.8-13.4-5.8-13.4"/>
	<g>
		<path class="st0" d="M80.3,139.2c4.2-1.2,9.5-1.5,21,0.7c10.7,2.1,18.4-8.2,20.8-9.8c2.6-1.7,5.5-4.8,7.6-3.6
			c2.1,1.2-3.6,5.8-3.3,11.4c0.3,5.5,2.2,15,5,17c2.8,2.1,6,2.4,3.8,5s-9.5,3.1-15.5,4.1s-14.2,10.6-21,12.9
			C91,179.4,73.6,187,69,166.4C64.6,147.1,74,141.1,80.3,139.2z"/>
		<path class="st7" d="M135.2,159.8c-2.2,2.6-9.5,3.1-15.5,4.1s-14.1,11-21,12.9c-2.9,0.8-8,3.5-13.2,3.4l0,0c0,0-1.2-10.1,2.6-12.4
			c3.8-2.2,5.7-0.5,8.9-8.3c3.3-7.7,19.1-7.6,19.1-7.6l11.9-4.4c0.9,3.3,2,6.1,3.4,7.1C134.2,156.9,137.4,157.2,135.2,159.8z"/>
		<path class="st1" d="M83.7,180.8c-2.4,0-4.8-0.5-7.1-1.7c-3.9-2.1-6.6-6.4-8.1-12.6c-4.7-19.6,5.3-25.7,11.6-27.6l0,0
			c5.8-1.7,12.6-1,21.2,0.7c8.4,1.6,15-4.6,18.5-8c0.8-0.8,1.5-1.4,2-1.7c0.6-0.4,1.2-0.9,1.8-1.3c2.1-1.6,4.3-3.3,6.1-2.3
			c1.3,0.8,0.4,2.3-0.7,4.3c-1.2,2.1-2.6,4.6-2.4,7.4c0.4,5.6,2.3,14.8,4.8,16.7c0.7,0.6,1.5,1,2.2,1.4c1.3,0.7,2.3,1.2,2.4,2.2
			c0.1,0.6-0.2,1.2-0.8,2c-1.9,2.2-6.8,2.9-12,3.7c-1.2,0.2-2.5,0.4-3.7,0.6c-3,0.5-6.4,3.3-10.1,6.2c-3.6,2.8-7.3,5.8-10.8,6.7
			c-0.8,0.2-1.8,0.5-2.9,0.9C92.6,179.3,88.1,180.8,83.7,180.8z M87.4,138.6c-3.2,0-5.3,0.4-7,0.9c-14.2,4.2-13,18.6-11.1,26.7
			c1.4,6,4,10.1,7.7,12.1c5.9,3.3,13.6,0.7,18.7-1c1.1-0.4,2.1-0.7,2.9-0.9c3.3-0.9,7-3.8,10.5-6.6c3.8-3,7.3-5.8,10.5-6.3
			c1.2-0.2,2.5-0.4,3.7-0.6c4.9-0.7,9.9-1.5,11.6-3.4c0.5-0.6,0.7-1,0.6-1.4c-0.1-0.6-1-1.1-2-1.6c-0.7-0.4-1.5-0.8-2.3-1.4
			c-3-2.3-4.8-12.4-5.1-17.3c-0.2-3,1.4-5.8,2.5-7.8c1.1-2,1.5-2.9,0.9-3.2c-1.4-0.8-3.4,0.7-5.3,2.2c-0.6,0.5-1.3,1-1.9,1.4
			c-0.4,0.3-1.1,0.9-1.9,1.7c-3.2,3.1-8.9,8.5-16.3,8.5c-0.9,0-1.9-0.1-2.9-0.3C95,139.1,90.7,138.6,87.4,138.6z M80.3,139.2
			L80.3,139.2L80.3,139.2z"/>
		<path class="st1" d="M103.5,160c-0.1,0-0.1,0-0.2,0c-0.1,0-0.2-0.1-0.2-0.2l-2.4-7.1c-0.1-0.2,0-0.4,0.2-0.5l69.1-29.6l-0.8-1.6
			c-0.4-0.7-0.3-1.4,0-2.1c0.4-0.6,1.1-1,1.8-1h12.2c0.7,0,1.3,0.4,1.7,1c0.3,0.6,0.2,1.4-0.2,1.9l-7.1,10.7c-0.4,0.6-1.1,1-1.9,1
			c-0.8,0-1.4-0.4-1.8-1.1l-0.5-0.9L103.7,160C103.6,160,103.6,160,103.5,160z M101.6,152.8l2.2,6.3l69.8-29.4
			c0.2-0.1,0.4,0,0.5,0.2l0.7,1.2c0.2,0.4,0.7,0.7,1.1,0.7c0.5,0,0.9-0.2,1.2-0.6l7.1-10.7c0,0,0,0,0,0c0.3-0.3,0.3-0.8,0.1-1.1
			c-0.2-0.4-0.5-0.6-1-0.6h-12.2c-0.5,0-0.9,0.2-1.1,0.6c-0.2,0.4-0.3,0.9,0,1.3l1,1.9c0.1,0.1,0.1,0.2,0,0.3c0,0.1-0.1,0.2-0.2,0.2
			L101.6,152.8z"/>
		<path class="st9" d="M101.1,152.6l2.4,7.1l70.2-29.6l0.7,1.2c0.6,1.2,2.3,1.2,3,0.1l7.1-10.7c0.7-1,0-2.3-1.2-2.3h-12.2
			c-1.3,0-2.1,1.4-1.5,2.5l1,1.9L101.1,152.6z"/>
		<ellipse class="st0" cx="101.5" cy="166.6" rx="1.9" ry="2.5"/>
		<ellipse class="st0" cx="91.8" cy="173.3" rx="1.9" ry="2.5"/>
		<path class="st10" d="M178.2,120.3"/>
		
			<rect x="98.2" y="137.5" transform="matrix(0.9131 -0.4077 0.4077 0.9131 -43.9322 69.0546)" class="st11" width="83.7" height="0.2"/>
		
			<rect x="98.3" y="138.9" transform="matrix(0.9111 -0.4121 0.4121 0.9111 -44.6739 70.7712)" class="st11" width="86.9" height="0.2"/>
		
			<rect x="99.5" y="141.2" transform="matrix(0.9102 -0.4141 0.4141 0.9102 -45.79 71.4439)" class="st11" width="84.8" height="0.2"/>
		<circle class="st1" cx="178.2" cy="120.3" r="0.7"/>
		<circle class="st1" cx="172.7" cy="120.6" r="0.7"/>
		<circle class="st1" cx="175.9" cy="129.4" r="0.7"/>
		<circle class="st1" cx="180.6" cy="124.1" r="0.7"/>
		<path class="st1" d="M181,119.5L181,119.5c0.2-0.1,0.5,0,0.6,0.2l0.9,1.9c0.1,0.2,0,0.5-0.2,0.6l0,0c-0.2,0.1-0.5,0-0.6-0.2
			l-0.9-1.9C180.7,119.9,180.7,119.7,181,119.5z"/>
		<path class="st12" d="M85.5,180.3"/>
		<path class="st1" d="M85.5,180.7c-0.2,0-0.4-0.2-0.4-0.4c0-0.5-0.7-11.2,3.4-13c1.1-0.5,2.1-0.9,2.8-1.1c1.8-0.7,2.6-1,3.7-2.9
			c0.4-0.8,0.8-1.6,1.2-2.5c1.1-2.5,2.4-5.4,5.2-5.8c0.2,0,0.4,0.1,0.4,0.3c0,0.2-0.1,0.4-0.3,0.4c-2.4,0.4-3.5,2.9-4.6,5.4
			c-0.4,0.9-0.8,1.8-1.3,2.6c-1.3,2.2-2.3,2.6-4.1,3.2c-0.7,0.3-1.6,0.6-2.7,1.1c-3,1.4-3.1,9.3-2.9,12.3
			C85.9,180.5,85.7,180.7,85.5,180.7C85.5,180.7,85.5,180.7,85.5,180.7z"/>
	</g>
	<path class="st2" d="M161.2,140.4c0,0-2.7-0.5-3.1-2.6c-0.5-3.1,0.9-5.8-1.2-5.8c-1.5,0-1.5,7.9-1.5,7.9c-0.2-0.9,0.6-5.9-0.5-7.2
		c-0.6-0.7-1.9-0.3-2.1,3.8c-0.2,4.1-0.5,5-0.3,4c0.2-1.4,0.2-7.4-1.7-6.7c-0.8,0.3,0.2,6.6-1,7.2c-0.4,0.2-2.4-3.4-2.9-3.3
		c-1.2,0.3-0.4,1.5,1.4,6.2c1.4,3.8,7.9,5.3,7.9,5.3L161.2,140.4L161.2,140.4z"/>
	<path class="st1" d="M156,149.5c0,0-0.1,0-0.1,0c-2.6-0.9-7.1-2.7-8.1-5.5c-0.4-1-0.7-1.8-1-2.5c-0.8-2.1-1.2-3-0.9-3.6
		c0.1-0.3,0.4-0.4,0.7-0.6c0.5-0.1,1,0.5,1.9,1.8c0.3,0.5,0.8,1.1,1,1.3c0.3-0.5,0.3-2.6,0.3-3.7c0-2.1,0-3.2,0.6-3.4
		c0.4-0.1,0.8-0.1,1.1,0.2c0.4,0.3,0.6,0.9,0.8,1.5c0.3-2.1,0.9-2.8,1.5-3c0.4-0.1,0.9,0,1.2,0.4c0.2,0.2,0.3,0.6,0.4,0.9
		c0.3-1.2,0.7-1.7,1.3-1.7c0.5,0,0.9,0.1,1.1,0.4c0.5,0.5,0.5,1.5,0.4,2.7c-0.1,0.9-0.1,2,0.1,3.1c0.2,1.3,1.7,2,2.6,2.3
		c0.2,0.1,0.3,0.3,0.2,0.5c-0.1,0.2-0.3,0.3-0.5,0.2c-1-0.4-2.8-1.2-3.1-2.9c-0.2-1.2-0.1-2.3-0.1-3.3c0.1-1,0.1-1.8-0.2-2.1
		c0,0-0.2-0.2-0.6-0.2c0,0-0.6,0.1-1,3.6c-0.2,1.9-0.2,3.9-0.2,3.9c0,0.2-0.1,0.3-0.3,0.4c-0.2,0-0.4-0.1-0.4-0.2
		c-0.2-0.6-0.2-1.7-0.1-2.9c0.1-1.6,0.2-3.5-0.4-4.2c-0.1-0.1-0.2-0.2-0.3-0.1c-0.1,0-0.9,0.4-1.1,3.7c-0.1,1.7-0.2,2.7-0.2,3.3
		c-0.1,1.2-0.2,1.2-0.4,1.3c-0.1,0.1-0.3,0-0.4,0c-0.2-0.1-0.2-0.4-0.1-0.7c0.1-0.5,0.1-1.9,0-3.3c-0.2-2.2-0.6-2.8-0.8-2.9
		c-0.1-0.1-0.2-0.1-0.3-0.1c-0.2,0.3-0.2,1.7-0.2,2.7c0,2.4-0.1,4.1-0.8,4.5c-0.5,0.3-1-0.4-1.9-1.7c-0.4-0.5-0.9-1.3-1.2-1.5
		c-0.1,0.1-0.2,0.1-0.2,0.1c-0.2,0.3,0.3,1.4,0.9,3c0.3,0.7,0.6,1.5,1,2.5c0.4,1.1,1.9,3.2,7.6,5.1c0.2,0.1,0.3,0.3,0.2,0.5
		C156.3,149.4,156.1,149.5,156,149.5z"/>
	<path class="st2" d="M96.5,113.6c0,0-0.1-8.5-1.4-11.6c-1-2.3-6-8.3-6.7-8.8s-1.7,0.9-0.3,3.6c1.4,2.8,2.6,5.3,2.6,5.3
		s-1.9-4.6-3.4-3.8c-1.7,0.9,0.9,5,0.9,5s-1.2-3.8-2.4-3.3c-2,0.9-0.2,4.3-0.2,4.3c-0.2-1.2-1.4-6.5-3.4-6c-2.1,0.5,1.5,5.7,1.4,7.2
		c-0.2,1.5-0.5,1.9,0.5,5.5c1,3.6,1.1,6.8,1.1,6.8L96.5,113.6z"/>
	<path class="st1" d="M85,118.4c-0.1,0-0.2,0-0.2-0.1c-0.1-0.1-0.2-0.2-0.2-0.3c0,0-0.1-3.2-1.1-6.7c-0.9-3.1-0.8-3.9-0.6-5
		c0-0.2,0.1-0.4,0.1-0.6c0.1-0.5-0.4-1.6-0.9-2.7c-0.7-1.7-1.4-3.4-1-4.3c0.2-0.3,0.4-0.5,0.8-0.6c1.3-0.3,2.1,1.1,2.6,2.6
		c0.2-0.4,0.5-0.7,1-0.9c0.2-0.1,0.5-0.1,0.7,0c0-0.3,0-0.6,0.1-0.8c0.1-0.4,0.4-0.7,0.7-0.9c0.3-0.2,0.7-0.2,1,0
		c0.1,0,0.3,0.1,0.4,0.2c-0.2-0.4-0.4-0.8-0.7-1.2c-1.2-1.9-1-3.4-0.3-4c0.4-0.3,0.8-0.4,1.2-0.1c0.7,0.5,5.8,6.5,6.8,8.9
		c1.4,3.1,1.5,11.4,1.5,11.7c0,0.2-0.1,0.3-0.2,0.4l-11.5,4.4C85.1,118.3,85.1,118.4,85,118.4z M82.3,98.8c0,0-0.1,0-0.2,0
		c-0.2,0-0.2,0.1-0.3,0.2c-0.3,0.6,0.4,2.3,1,3.6c0.5,1.3,1,2.4,0.9,3c0,0.2-0.1,0.5-0.1,0.7c-0.2,1-0.3,1.7,0.6,4.7
		c0.8,2.8,1,5.3,1.1,6.4l10.8-4.1c0-1.5-0.2-8.4-1.4-11.1c-1-2.3-6-8.2-6.6-8.6c-0.1-0.1-0.2,0-0.2,0.1c-0.4,0.3-0.6,1.4,0.4,3
		c1.7,2.8,2.6,5.3,2.6,5.4c0.1,0.2,0,0.4-0.2,0.5c-0.2,0.1-0.4,0-0.5-0.2c-0.4-0.9-1.5-3.2-2.5-3.6c-0.2-0.1-0.3,0-0.4,0
		c-0.2,0.1-0.3,0.2-0.3,0.4c-0.1,0.4,0,0.9,0.1,1.4c0.7,1,1.2,2.5,1.2,2.7c0.1,0.2,0,0.4-0.2,0.5c-0.2,0.1-0.4,0-0.5-0.1
		c-0.1-0.2-0.9-1.4-1.3-2.7c-0.2-0.2-0.3-0.4-0.5-0.4c-0.1,0-0.2,0-0.2,0c-0.3,0.1-0.5,0.3-0.6,0.6c-0.3,1,0.3,2.6,0.6,3.1
		c0.1,0.2,0,0.4-0.1,0.5c-0.2,0.1-0.4,0.1-0.5,0c-0.3-0.3-0.6-1.1-0.9-2.3C83.8,100.9,83.2,98.8,82.3,98.8z"/>
	<path class="st1" d="M88.7,112.9c-0.1,0-0.1,0-0.2,0c-0.8-0.4-0.7-1.4-0.6-2.6c0.2-1.7,0.2-2.7-1.1-2.9c-1.8-0.3-2.3-1.3-2.2-2.1
		c0.1-0.8,0.9-1.6,2.1-1.5c3.2,0.3,5.2,0,5.2,0c0.2,0,0.4,0.1,0.4,0.3s-0.1,0.4-0.3,0.4c-0.1,0-2.2,0.3-5.4,0
		c-0.7-0.1-1.2,0.3-1.3,0.8c-0.1,0.5,0.5,1,1.6,1.2c2.1,0.4,1.9,2.3,1.7,3.8c-0.1,0.8-0.2,1.6,0.1,1.8c0.2,0.1,0.3,0.3,0.2,0.5
		C89,112.8,88.9,112.9,88.7,112.9z"/>
	<path class="st1" d="M182.6,159.5c-3.4,0-7.8-1-13.2-3c-7.3-2.7-13.8-6.4-13.9-6.5c-0.2-0.1-0.2-0.3-0.1-0.5l6.3-11
		c0.1-0.1,0.1-0.2,0.3-0.2c0.1,0,0.2,0,0.3,0.1c2.4,1.8,6.2,4.1,7.2,3.3c0.6-0.5,1.1-2-2-7.1c-1.8-3-3.9-5.8-4-5.8
		c-0.1-0.2-0.1-0.4,0.1-0.5c0.2-0.1,0.4-0.1,0.5,0.1c0,0,2.2,2.8,4,5.9c2.6,4.3,3.1,7,1.8,8.1c-1.6,1.3-6.2-1.9-7.8-3l-5.9,10.3
		c3,1.7,25.8,13.9,32.4,7.3c2.6-2.6,3.4-5.2,2.7-9.1c-0.7-4.1-3.1-9.8-6.6-18.4c-0.8-2-1.6-4-2.6-6.3c-4.7-11.5-14.4-18.5-21.7-22.3
		c-8-4.2-14.9-5.6-15-5.6c-1.4-0.3-2.7,0.1-2.7,0.2c-0.2,0.1-0.4,0-0.5-0.2l-4.8-8c-0.1-0.2-0.1-0.4,0.1-0.5
		c0.2-0.1,0.4-0.1,0.5,0.1l4.7,7.7c0.5-0.1,1.6-0.4,2.8-0.1c0.1,0,7.1,1.5,15.2,5.7c7.5,3.9,17.3,11,22.1,22.8
		c0.9,2.3,1.8,4.3,2.6,6.3c7.2,17.5,9.3,22.8,3.7,28.4C187.7,158.8,185.5,159.5,182.6,159.5z"/>
	<path class="st1" d="M135.2,100.2c0,0-0.1,0-0.1,0c0,0-1.8-0.5-3.8-0.3c-0.2,0-0.4-0.1-0.4-0.4c0-0.2,0.1-0.4,0.4-0.4
		c1.4-0.1,2.6,0.1,3.3,0.2l-2.1-5c-0.1-0.2,0-0.4,0.2-0.5c0.2-0.1,0.4,0,0.5,0.2l2.4,5.6c0.1,0.1,0,0.3-0.1,0.4
		C135.4,100.1,135.3,100.2,135.2,100.2z"/>
</g>
</svg>
