<?xml version="1.0" encoding="utf-8"?>
<!-- Generator: Adobe Illustrator 16.0.0, SVG Export Plug-In . SVG Version: 6.00 Build 0)  -->
<!DOCTYPE svg PUBLIC "-//W3C//DTD SVG 1.1//EN" "http://www.w3.org/Graphics/SVG/1.1/DTD/svg11.dtd">
<svg version="1.1" id="图层_1" xmlns="http://www.w3.org/2000/svg" xmlns:xlink="http://www.w3.org/1999/xlink" x="0px" y="0px"
	 width="960px" height="540px" viewBox="0 0 960 540" enable-background="new 0 0 960 540" xml:space="preserve">
<g id="组_766">
	<path id="路径_1806" opacity="0.2" fill="#69BAF9" enable-background="new    " d="M820,509.85c0-187.776-152.223-340-340-340
		c-187.777,0-340,152.223-340,340"/>
	<path id="路径_1807" opacity="0.5" fill="#69BAF9" enable-background="new    " d="M727.618,509.85
		c0-136.812-110.908-247.72-247.719-247.72c-136.812,0-247.72,110.908-247.72,247.72"/>
	<path id="路径_1808" opacity="0.7" fill="#69BAF9" enable-background="new    " d="M635.6,509.85
		c0.219-85.755-69.122-155.45-154.878-155.668c-85.755-0.219-155.45,69.122-155.669,154.878c0,0.263,0,0.526,0,0.79"/>
</g>
<g id="组_764" transform="translate(-72.295)">
	<path fill="#3D3D63" d="M807.295,510h-264c-2.761,0-5-2.238-5-5s2.239-5,5-5h264c2.762,0,5,2.238,5,5S810.057,510,807.295,510z"/>
	<path fill="#3D3D63" d="M886.295,510h-58c-2.762,0-5-2.238-5-5s2.238-5,5-5h58c2.762,0,5,2.238,5,5S889.057,510,886.295,510z"/>
	<path fill="#3D3D63" d="M491.295,510h-60c-2.761,0-5-2.238-5-5s2.239-5,5-5h60c2.761,0,5,2.238,5,5S494.056,510,491.295,510z"/>
	<path fill="#3D3D63" d="M396.295,510h-178c-2.761,0-5-2.238-5-5s2.239-5,5-5h178c2.761,0,5,2.238,5,5S399.056,510,396.295,510z"/>
	<ellipse id="椭圆_336" fill="#3D3D63" cx="514.295" cy="505" rx="5" ry="4"/>
</g>
<g id="矩形_1161" transform="translate(268 222)">
	<path fill="#4C54C4" d="M20,0h340c11.046,0,20,8.954,20,20v220c0,11.046-8.954,20-20,20H20c-11.046,0-20-8.954-20-20V20
		C0,8.954,8.954,0,20,0z"/>
	<path fill="#3D3D63" d="M360,260H20c-11.028,0-20-8.972-20-20V20C0,8.972,8.972,0,20,0h340c11.028,0,20,8.972,20,20v220
		C380,251.028,371.028,260,360,260z M20,20v220h340c0.009,0,0.013-0.001,0.013-0.001L360,20H20z"/>
</g>
<g>
	<path id="路径_1934_1_" fill="#D4E5FA" d="M631.962,59.189C587.223,59.189,367.076,59,367.076,59
		c-21.05,0.021-38.097,17.102-38.076,38.152l0,0v336.7c-0.019,21.049,17.027,38.128,38.076,38.148h178.955
		c21.05-0.021,38.097-17.103,38.076-38.152l0,0L584.1,103"/>
	<path fill="#3D3D63" d="M546.041,482H367.076c-26.537-0.025-48.1-21.629-48.076-48.157V97.152
		c-0.026-26.52,21.537-48.125,48.066-48.152c2.22,0.002,220.672,0.189,264.896,0.189v20c-44.231,0-262.693-0.187-264.895-0.189
		C351.584,69.016,338.985,81.64,339,97.142v336.709c-0.014,15.51,12.585,28.134,28.086,28.148h178.945
		c15.492-0.015,28.091-12.64,28.076-28.143L574.1,103l20-0.001l0.008,330.848C594.133,460.369,572.57,481.975,546.041,482z"/>
</g>
<g id="矩形_1158" transform="translate(574 49)">
	<path fill="#5D76C7" d="M59.5,0L59.5,0C92.361,0,119,26.639,119,59.5v66.667C119,137.121,110.12,146,99.167,146H19.833
		C8.88,146,0,137.121,0,126.167V59.5C0,26.639,26.639,0,59.5,0z"/>
	<path fill="#3D3D63" d="M99.1,146H19.9C8.928,146,0,137.073,0,126.1V59.5C0,26.691,26.691,0,59.5,0S119,26.691,119,59.5v66.6
		C119,137.073,110.072,146,99.1,146z M20,126h79V59.5C99,37.72,81.28,20,59.5,20S20,37.72,20,59.5V126z"/>
</g>
<g id="椭圆_418" transform="translate(419 113)">
	<circle fill="#3D3D63" cx="38" cy="38" r="38"/>
	<path fill="#FFFFFF" d="M38,76C17.047,76,0,58.953,0,38S17.047,0,38,0s38,17.047,38,38S58.953,76,38,76z M38,25
		c-7.168,0-13,5.832-13,13s5.832,13,13,13s13-5.832,13-13S45.168,25,38,25z"/>
</g>
<circle fill="#3D3D63" cx="389" cy="151" r="13"/>
<path fill="#3D3D63" d="M389,164c-7.168,0-13-5.832-13-13s5.832-13,13-13s13,5.832,13,13S396.168,164,389,164z M389,144
	c-3.86,0-7,3.14-7,7s3.14,7,7,7s7-3.14,7-7S392.86,144,389,144z"/>
<g id="椭圆_423" transform="translate(512 138)">
	<circle fill="#3D3D63" cx="13" cy="13" r="13"/>
	<path fill="#3D3D63" d="M13,26C5.832,26,0,20.168,0,13S5.832,0,13,0s13,5.832,13,13S20.168,26,13,26z M13,6c-3.859,0-7,3.14-7,7
		s3.141,7,7,7s7-3.14,7-7S16.859,6,13,6z"/>
</g>
<path fill="#3D3D63" d="M525,230H389c-4.418,0-8-3.582-8-8s3.582-8,8-8h136c4.418,0,8,3.582,8,8S529.418,230,525,230z"/>
<path fill="#3D3D63" d="M525,266H389c-4.418,0-8-3.582-8-8s3.582-8,8-8h136c4.418,0,8,3.582,8,8S529.418,266,525,266z"/>
<path fill="#3D3D63" d="M525,302H389c-4.418,0-8-3.582-8-8s3.582-8,8-8h136c4.418,0,8,3.582,8,8S529.418,302,525,302z"/>
<path fill="#3D3D63" d="M525,338H389c-4.418,0-8-3.582-8-8s3.582-8,8-8h136c4.418,0,8,3.582,8,8S529.418,338,525,338z"/>
<g>
	<path id="路径_1949_1_" fill="#F4F1EC" d="M638,250.775L458,361l180,111V250.775z"/>
	<path fill="#3D3D63" d="M638,482c-1.822,0-3.643-0.498-5.249-1.488l-180-111c-2.958-1.824-4.756-5.053-4.751-8.527
		s1.814-6.698,4.778-8.513l180-110.225c3.087-1.89,6.952-1.964,10.11-0.196c3.157,1.769,5.112,5.105,5.112,8.724V472
		c0,3.624-1.961,6.965-5.126,8.731C641.357,481.578,639.678,482,638,482z M477.1,361.03L628,454.085v-185.46L477.1,361.03z"/>
</g>
<g>
	<path id="路径_1951_1_" fill="#F4F1EC" d="M278,251l180,110.225L278,472.226V251z"/>
	<path fill="#3D3D63" d="M278,482.226c-1.677,0-3.356-0.422-4.874-1.269c-3.165-1.767-5.126-5.107-5.126-8.731V251
		c0-3.619,1.955-6.956,5.112-8.724c3.159-1.769,7.024-1.693,10.11,0.196l180,110.224c2.963,1.814,4.772,5.038,4.778,8.513
		s-1.793,6.703-4.751,8.527l-180,111.001C281.643,481.728,279.822,482.226,278,482.226z M288,268.85v185.461l150.9-93.056
		L288,268.85z"/>
</g>
<g>
	<path id="路径_1950_1_" fill="#F4F1EC" d="M458,361L278,472h360L458,361z"/>
	<path fill="#3D3D63" d="M638,482H278c-4.472,0-8.401-2.97-9.621-7.272c-1.22-4.303,0.565-8.892,4.372-11.239l180-111
		c3.218-1.984,7.28-1.984,10.498,0l180,111c3.807,2.348,5.592,6.937,4.372,11.239C646.4,479.03,642.473,482,638,482z M313.268,462
		h289.464L458,372.749L313.268,462z"/>
</g>
<path fill="#3D3D63" d="M481.917,156h-50c-2.761,0-5-2.239-5-5s2.239-5,5-5h50c2.762,0,5,2.239,5,5S484.679,156,481.917,156z"/>
<path fill="#3D3D63" d="M457,181c-2.761,0-5-2.239-5-5v-50c0-2.761,2.239-5,5-5s5,2.239,5,5v50C462,178.761,459.761,181,457,181z"/>
<g id="组_781" transform="translate(174.213 403.678)">
	<path fill="#7AC1FA" d="M32.692,20.345H0c-2.209,0-4-1.791-4-4s1.791-4,4-4h32.692c2.209,0,4,1.791,4,4
		S34.901,20.345,32.692,20.345z"/>
	<path fill="#7AC1FA" d="M16.346,36.692c-2.209,0-4-1.791-4-4V0c0-2.209,1.791-4,4-4s4,1.791,4,4v32.692
		C20.346,34.901,18.555,36.692,16.346,36.692z"/>
</g>
<g id="组_782" transform="translate(182.96 293.66)">
	<g id="组_775" transform="translate(0 0)">
		<g id="组_770" transform="translate(20.007)">
			<path fill="#7AC1FA" d="M0,11.322c-2.209,0-4-1.791-4-4V0c0-2.209,1.791-4,4-4s4,1.791,4,4v7.322C4,9.531,2.209,11.322,0,11.322z
				"/>
			<path fill="#7AC1FA" d="M0,44.014c-2.209,0-4-1.791-4-4v-7.322c0-2.209,1.791-4,4-4s4,1.791,4,4v7.322
				C4,42.223,2.209,44.014,0,44.014z"/>
		</g>
		<g id="组_771" transform="translate(0 20.007) rotate(-90)">
			<path fill="#7AC1FA" d="M-4,40.014v-7.322c0-2.209,1.791-4,4-4s4,1.791,4,4v7.322c0,2.209-1.791,4-4,4S-4,42.223-4,40.014z"/>
			<path fill="#7AC1FA" d="M-4,7.322V0c0-2.209,1.791-4,4-4s4,1.791,4,4v7.322c0,2.209-1.791,4-4,4S-4,9.531-4,7.322z"/>
		</g>
		<g id="组_772" transform="translate(5.86 34.154) rotate(-135)">
			<path fill="#7AC1FA" d="M-2.828,29.863c0.724-0.724,1.724-1.171,2.829-1.171c2.209,0,4,1.791,4,4v7.322c0,2.21-1.791,4-4,4
				c-2.209,0-4-1.791-4-4v-7.322C-4,31.587-3.552,30.587-2.828,29.863z"/>
			<path fill="#7AC1FA" d="M-2.829-2.829C-2.105-3.553-1.105-4,0-4c2.209,0,4,1.791,4,4v7.322c0,2.21-1.791,4-4,4
				c-2.209,0-4-1.791-4-4V0C-4-1.105-3.553-2.105-2.829-2.829z"/>
		</g>
		<g id="组_773" transform="translate(5.86 5.86) rotate(-45)">
			<path fill="#7AC1FA" d="M-2.828,10.15C-3.552,9.426-4,8.426-4,7.322v-7.322c0-2.209,1.791-4,4-4C2.21-4,4-2.21,4,0v7.322
				c0,2.209-1.791,4-4,4C-1.104,11.322-2.104,10.874-2.828,10.15z"/>
			<path fill="#7AC1FA" d="M-2.829,42.843C-3.553,42.119-4,41.119-4,40.014v-7.322c0-2.209,1.791-4,4-4c2.21,0,4,1.791,4,4v7.322
				c0,2.209-1.791,4-4,4C-1.105,44.014-2.105,43.567-2.829,42.843z"/>
		</g>
	</g>
</g>
<g id="路径_1815" transform="translate(177 227.698)">
	<path fill="none" d="M16.95,33.9C7.589,33.9,0,26.311,0,16.95S7.589,0,16.95,0C26.311,0,33.9,7.589,33.9,16.95
		S26.311,33.9,16.95,33.9L16.95,33.9z"/>
	<path fill="#7AC1FA" d="M16.95,25.899c4.935,0,8.95-4.015,8.95-8.95c0-4.935-4.015-8.949-8.95-8.949S8,12.015,8,16.949
		C8,21.885,12.015,25.899,16.95,25.899 M16.95,33.899C7.589,33.899,0,26.311,0,16.949C0,7.589,7.589,0,16.95,0
		s16.95,7.588,16.95,16.949C33.899,26.311,26.311,33.899,16.95,33.899z"/>
</g>
<g id="路径_1816" transform="translate(273.455 71.823)">
	<path fill="none" d="M14.127,28.254C6.325,28.254,0,21.929,0,14.127C0,6.325,6.325,0,14.127,0s14.127,6.325,14.127,14.127
		C28.254,21.929,21.929,28.254,14.127,28.254L14.127,28.254z"/>
	<path fill="#7AC1FA" d="M14.127,20.254c3.378,0,6.127-2.749,6.127-6.127S17.505,8,14.127,8S8,10.749,8,14.127
		S10.749,20.254,14.127,20.254 M14.127,28.254C6.325,28.254,0,21.929,0,14.127C0,6.325,6.325,0,14.127,0s14.127,6.325,14.127,14.127
		C28.254,21.929,21.929,28.254,14.127,28.254z"/>
</g>
<g id="路径_1817" transform="translate(698.238 333.966)">
	<path fill="none" d="M20.356,40.712C9.114,40.712,0,31.598,0,20.356S9.114,0,20.356,0s20.356,9.114,20.356,20.356
		S31.598,40.712,20.356,40.712z"/>
	<path fill="#7AC1FA" d="M20.356,32.712c6.813,0,12.355-5.543,12.355-12.355C32.711,13.543,27.169,8,20.356,8
		C13.543,8,8,13.543,8,20.356C8,27.169,13.543,32.712,20.356,32.712 M20.356,40.712C9.114,40.712,0,31.598,0,20.356
		S9.114,0,20.356,0s20.355,9.114,20.355,20.356S31.598,40.712,20.356,40.712z"/>
</g>
<g id="组_783" transform="translate(758.172 121.193)">
	<path fill="#7AC1FA" d="M24.703,15.401H0c-2.209,0-4-1.791-4-4s1.791-4,4-4h24.703c2.209,0,4,1.791,4,4
		S26.912,15.401,24.703,15.401z"/>
	<path fill="#7AC1FA" d="M12.352,28.703c-2.209,0-4-1.791-4-4V0c0-2.209,1.791-4,4-4s4,1.791,4,4v24.703
		C16.352,26.912,14.561,28.703,12.352,28.703z"/>
</g>
<path id="路径_1967" fill="#D7DADD" d="M458,419.958l-144.719,42.025h289.406L458,419.958z"/>
<path id="路径_1976" fill="#D7DADD" d="M377.738,361l-89.723-92.109v185.2L377.738,361z"/>
<path id="路径_1977" fill="#D7DADD" d="M536.928,361l91.04-92.309l0.032,185.4L536.928,361z"/>
<rect id="矩形_1210" x="594" y="148" fill="#4C54C4" width="79" height="27"/>
</svg>
