<?xml version="1.0" encoding="utf-8"?>
<!-- Generator: Adobe Illustrator 24.0.0, SVG Export Plug-In . SVG Version: 6.00 Build 0)  -->
<svg version="1.1" id="图层_1" xmlns="http://www.w3.org/2000/svg" xmlns:xlink="http://www.w3.org/1999/xlink" x="0px" y="0px"
	 viewBox="0 0 489 489" style="enable-background:new 0 0 489 489;" xml:space="preserve">
<style type="text/css">
	.st0{fill:#FE8C6C;}
	.st1{fill:#EAB1AA;}
	.st2{fill:#FEFEFD;}
	.st3{fill:#FDFDFD;}
	.st4{fill:#E3AFA8;}
	.st5{fill:#EBEAE9;}
	.st6{fill:#BE918B;}
	.st7{fill:#F1D8D4;}
	.st8{fill:#7B7B7B;}
	.st9{fill:#C8C8C8;}
	.st10{fill:#EAEAEA;}
	.st11{fill:#050302;}
	.st12{fill:#FFFCCF;}
	.st13{fill:#FFFFFF;}
	.st14{fill:#FEFFFF;}
	.st15{fill:#4DBFB2;}
	.st16{fill:#FEFEFE;}
	.st17{fill:#4DBEB1;}
	.st18{fill:#FBFBFA;}
	.st19{fill:#F9F9F9;}
	.st20{fill:#F0F0ED;}
	.st21{fill:#F2F2EC;}
	.st22{fill:#6DC7BC;}
	.st23{fill:#080808;}
	.st24{fill:#0D0D0B;}
	.st25{fill:#070706;}
	.st26{fill:#0C0C0B;}
	.st27{fill:#040505;}
	.st28{fill:#F0B4A7;}
	.st29{fill:#FDFCFC;}
	.st30{fill:#4BB7AB;}
	.st31{fill:#41A196;}
	.st32{fill:#D0A197;}
	.st33{fill:#AD8279;}
	.st34{fill:#D3C1BE;}
	.st35{fill:#EFBDB2;}
	.st36{fill:#F2E6E4;}
	.st37{fill:#F6E5E1;}
	.st38{fill:#E8D6D2;}
	.st39{fill:#D1EEEA;}
	.st40{fill:#A17870;}
	.st41{fill:#DBD2D1;}
	.st42{fill:#F3C8C0;}
	.st43{fill:#F5CEC6;}
	.st44{fill:#F5D3CB;}
	.st45{fill:#F6D8D1;}
	.st46{fill:#F8DCD6;}
	.st47{fill:#F8DFD9;}
	.st48{fill:#F7E1DC;}
	.st49{fill:#F3E4E1;}
	.st50{fill:#EBE1DD;}
	.st51{fill:#EACFC9;}
	.st52{fill:#F8E1DC;}
	.st53{fill:#EFDAD5;}
	.st54{fill:#67504B;}
	.st55{fill:#C1C4C3;}
	.st56{fill:#ECC8C1;}
	.st57{fill:#D3C0BB;}
	.st58{fill:#FCFEFE;}
	.st59{fill:#020404;}
	.st60{fill:#FDFEFE;}
	.st61{fill:#050B0B;}
	.st62{fill:#ECC1B8;}
	.st63{fill:#F3D1CA;}
	.st64{fill:#F7E3DF;}
	.st65{fill:#F2CCC4;}
	.st66{stroke:#000000;stroke-miterlimit:10;}
	.st67{fill:#FE8F6D;}
	.st68{fill:#EFB3A6;}
	.st69{fill:#626262;}
	.st70{fill:#F9F3F2;}
	.st71{fill:#E9DCDA;}
	.st72{fill:#E5CAC4;}
	.st73{fill:#EAC6BE;}
	.st74{fill:#040404;}
	.st75{fill:#4BB9AC;}
	.st76{fill:#4AB7AA;}
	.st77{fill:#F1C4BB;}
	.st78{fill:#010101;}
	.st79{fill:#DBDBDB;}
	.st80{fill:#020201;}
	.st81{fill:#020202;}
	.st82{fill:#FEFCD3;}
	.st83{fill:#FEFDF3;}
	.st84{fill:#FEFBCE;}
	.st85{fill:#FBF8CD;}
	.st86{fill:#D0CEA9;}
	.st87{fill:#333333;}
	.st88{fill:#020101;}
	.st89{fill:#F4B3AF;}
	.st90{fill:#FD8F6D;}
	.st91{fill:#4EBFB2;}
	.st92{fill:#4EBEB2;}
	.st93{fill:#FD8F6E;}
	.st94{fill:#F4B4B0;}
	.st95{fill:#030202;}
	.st96{fill:#4EBEB1;}
	.st97{fill:#020303;}
	.st98{fill:#050404;}
	.st99{fill:#030302;}
	.st100{fill:#010302;}
	.st101{fill:#040202;}
	.st102{fill:#030203;}
	.st103{fill:#050303;}
	.st104{fill:#FC8E6D;}
	.st105{fill:#040303;}
	.st106{fill:#FB8F6E;}
	.st107{fill:#4FBDB1;}
	.st108{fill:#FC8F6E;}
	.st109{fill:#FC8F6D;}
	.st110{fill:#F3B2AE;}
	.st111{fill:#030505;}
	.st112{fill:#F88E6D;}
	.st113{fill:#4FBDB0;}
	.st114{fill:#060505;}
	.st115{fill:#070606;}
	.st116{fill:#F18C6D;}
	.st117{fill:#0A0706;}
	.st118{fill:#51BCB0;}
	.st119{fill:#FFFCD2;}
	.st120{fill:#EBB2AB;}
	.st121{fill:#FFFCD0;}
	.st122{fill:#DBDADA;}
	.st123{fill:#FEFBD1;}
	.st124{fill:#F6B4B0;}
	.st125{fill:#F5B4B0;}
	.st126{fill:#FFFCD5;}
	.st127{fill:#FFFFFD;}
	.st128{fill:#FFFEFB;}
	.st129{fill:#FDFDFC;}
	.st130{fill:#FEFDF4;}
	.st131{fill:#FEFEFB;}
	.st132{fill:#FDFDF4;}
	.st133{fill:#DADADA;}
	.st134{fill:#FEFBCF;}
	.st135{fill:#FEFCDF;}
	.st136{fill:#FEFBD0;}
	.st137{fill:#FEFBD6;}
	.st138{fill:#FEFEF5;}
	.st139{fill:#FEFBD7;}
	.st140{fill:#FEFDFC;}
	.st141{fill:#FEFEFC;}
	.st142{fill:#FDFBCF;}
	.st143{fill:#FDFAD2;}
	.st144{fill:#FCFCFA;}
	.st145{fill:#FCFCFC;}
	.st146{fill:#FBFBF8;}
	.st147{fill:#FDFACE;}
	.st148{fill:#FCFCF7;}
	.st149{fill:#FDFDFB;}
	.st150{fill:#FCF9CD;}
	.st151{fill:#FDFACF;}
	.st152{fill:#FCFCF8;}
	.st153{fill:#F9F7DB;}
	.st154{fill:#F4B5B2;}
	.st155{fill:#F2B6B2;}
	.st156{fill:#FCFAD1;}
	.st157{fill:#FAF7CB;}
	.st158{fill:#FAFAFA;}
	.st159{fill:#D9D9D9;}
	.st160{fill:#F2B2AE;}
	.st161{fill:#DAD9D9;}
	.st162{fill:#D8D8D8;}
	.st163{fill:#ECB2A5;}
	.st164{fill:#FCF9D0;}
	.st165{fill:#FBFBFB;}
	.st166{fill:#F9F6CA;}
	.st167{fill:#F5F2C6;}
	.st168{fill:#F5F3F3;}
	.st169{fill:#F4F4F4;}
	.st170{fill:#F0AFAC;}
	.st171{fill:#DDACA9;}
	.st172{fill:#F0EDC3;}
	.st173{fill:#0C0C0C;}
	.st174{fill:#F8F8F8;}
	.st175{fill:#E9ACA8;}
	.st176{fill:#B4B3A2;}
	.st177{fill:#E5E3BA;}
	.st178{fill:#DBA09D;}
	.st179{fill:#8D8D8D;}
	.st180{fill:#A2A085;}
	.st181{fill:#8F8E75;}
	.st182{fill:#E7E7E7;}
	.st183{fill:#EBEBEB;}
	.st184{fill:#878787;}
	.st185{fill:#7A7964;}
	.st186{fill:#EAB2AB;}
	.st187{fill:#E9B1AA;}
	.st188{fill:#E8B0A9;}
	.st189{fill:#E9B2AB;}
	.st190{fill:#EEB4A6;}
	.st191{fill:#030303;}
	.st192{fill:#E6AEA2;}
	.st193{fill:#DFACA1;}
	.st194{fill:#040403;}
	.st195{fill:#0C0C0A;}
	.st196{fill:#050505;}
	.st197{fill:#020302;}
	.st198{fill:#FCFEFD;}
	.st199{fill:#030706;}
	.st200{fill:#071110;}
	.st201{fill:#040909;}
	.st202{fill:#030606;}
	.st203{fill:#EFB4A7;}
	.st204{fill:#FDFCFB;}
	.st205{fill:#F9F3F1;}
	.st206{fill:#EEE1DD;}
	.st207{fill:#EADEDA;}
	.st208{fill:#EEB3A6;}
	.st209{fill:#FCFBFB;}
	.st210{fill:#4EBAAE;}
	.st211{fill:#409F94;}
	.st212{fill:#FEFCD6;}
	.st213{fill:#FEFDFD;}
	.st214{fill:#E2B6B1;}
	.st215{fill:#4DBDB0;}
	.st216{fill:#F9FAFA;}
	.st217{fill:#EFF4F3;}
	.st218{fill:#060404;}
	.st219{fill:#FBFAF9;}
	.st220{fill:#F8F0ED;}
	.st221{fill:#FA8D6B;}
	.st222{fill:#F78B6A;}
	.st223{fill:#E8B2AB;}
	.st224{fill:#060303;}
	.st225{fill:#0A0504;}
	.st226{fill:#0E0806;}
	.st227{fill:#160C0A;}
	.st228{fill:#FDFBF7;}
	.st229{fill:#FCFBFA;}
	.st230{fill:#FDFBFB;}
	.st231{fill:#FCFAF9;}
	.st232{fill:#FBF9F8;}
	.st233{fill:#070505;}
	.st234{fill:#120D0C;}
	.st235{fill:#050202;}
	.st236{fill:#F5F7F7;}
	.st237{fill:#F8FAF9;}
	.st238{fill:#4EB7AA;}
	.st239{fill:#49B5A9;}
	.st240{fill:#FEFCFA;}
	.st241{fill:#4CB6AA;}
	.st242{fill:#060D0D;}
	.st243{fill:#F5F5F5;}
	.st244{fill:#070403;}
	.st245{fill:#090908;}
	.st246{fill:#080807;}
	.st247{fill:#050707;}
	.st248{fill:#F3D3D1;}
	.st249{fill:#E1ABA4;}
	.st250{fill:#4DBBAF;}
	.st251{fill:#EAEDED;}
	.st252{fill:#4AB7AB;}
	.st253{fill:#46A79B;}
	.st254{fill:#F7F7F7;}
	.st255{fill:#F3F3F3;}
	.st256{fill:#EDEDED;}
	.st257{fill:#F0F0F0;}
	.st258{fill:#CACACA;}
	.st259{fill:#F78E6D;}
	.st260{fill:#F8F7F6;}
	.st261{fill:#F28A69;}
	.st262{fill:#F59374;}
</style>
<g>
	<path class="st78" d="M415.57,168.16c-1.68,4.8-1.78,10.19-6.4,14.02c-8.26,6.84-15.66,14.82-24.36,21
		c-6.56,4.65-7.68,8.26-4.8,16.04c15,40.56,25.76,82.35,34.01,124.8c0.63,3.26,0.93,5.39-3.22,7.6
		c-79.36,42.26-161.23,79.1-243.96,114.16c-8.34,3.53-16.29,8.04-24.24,12.41c-4.39,2.41-6.76,0.5-8.01-3.27
		c-18.33-55.34-35.45-111.13-59.34-164.44c-4.18-9.32-1.64-13.49,6.58-18.16c23.18-13.17,47.7-23.51,71.66-35.03
		c4.81-2.31,5.02-3.52,2.54-8.29c-21.84-42.05-41.26-85.25-60.27-128.63c-1.38-3.15-0.23-4.05,2.17-5.15
		c73.56-33.68,146.99-67.64,220.74-100.88c16.27-7.33,15.98-5.73,24.27,9.2c11.32,20.38,23.65,40.23,36.23,59.87
		c16.29,25.44,26.52,53.4,35.66,81.89C415.12,166.17,415.3,167.08,415.57,168.16z"/>
	<path class="st13" d="M182.17,230.39c-0.4,4.24-0.8,8.47-1.19,12.71c-2.24-3.74-4.6-7.41-6.7-11.22
		c-14.94-27.15-32.47-52.94-42.14-82.84c-2.29-7.09-2.3-9.88,5.58-13.56c48-22.37,95.96-44.91,141.95-71.33
		c11.32-6.5,22.88-12.53,35.64-16.04c7.65-2.1,11.98-0.14,15.22,7.31c9.76,22.46,18.99,45.19,31.56,66.33
		c7.99,13.44,15.62,27.11,23.98,40.3c4.02,6.34,0.43,9.92-3.67,12.87c-4.45,3.2-4.99-2.55-6.54-4.46
		c-8.49-10.41-17.77-19.87-29.55-26.5c-7.91-4.45-16.11-6.7-24.14-0.13c-2.61,2.13-3.81,0.55-5.71-1.19
		c-6.36-5.81-12.47-12.13-19.63-16.79c-16.2-10.54-29.52-7.31-39.85,9.03c-9.06,14.33-14.62,30.22-19.24,46.41
		c-2.47,8.67-5.57,11.35-14.47,5.79c-14.25-8.9-26.07-5.18-34.77,9.39C182.25,206.94,181.66,218.6,182.17,230.39z"/>
	<path class="st90" d="M120.07,281.51l0.28-0.55l0.63,0.06c18.52-6.25,36.33-14.29,54.17-22.16c27.34-12.06,55.41-22.29,82.99-33.73
		c24.57-10.2,49.62-19.16,74.52-28.5c19.21-7.2,22.78-6.33,32.34,11.66c9.31,17.54,15.03,36.54,20.61,55.54
		c3.06,10.42,5.06,21.16,9.37,31.21c0.25,0.69,0.5,1.38,0.75,2.07c-0.3,1.21-0.56,2.4,0.57,3.37c3.06,13.25,6.12,26.49,9.19,39.74
		c-4.98,6.35-11.75,10.47-18.86,13.66c-8.42,3.77-16.07,9.08-24.88,12.02c-1.68,0.56-3.51,1.4-3.68,3.67
		c-60.84,32.21-124.14,59.08-187.4,86.01c-6.86,2.92-13.91,5.67-20.2,9.59c-8.03,5.01-11.5,2.85-12.4-5.91
		c-5.34-19.96-12.26-39.41-19.18-58.85c-1.45-4.07-2.45-8.35-4.83-12.05c-2.48-6.88-4.96-13.76-7.45-20.65
		c-1.75-9.88-6.06-18.93-9.5-28.23c-3.85-10.44-8.25-20.69-12.5-30.98c-1.03-2.49-2.66-4.99-1.17-7.9
		c10.93-7.36,22.76-12.98,34.8-18.21C119.23,282.86,119.68,282.25,120.07,281.51z"/>
	<path class="st13" d="M350.32,176c-2.22,0-4.44,0-6.66,0c-0.53,0.17-1.06,0.33-1.59,0.49c-46.16,19.48-92.33,38.96-138.49,58.44
		c-1.29,0.54-2.61,1.01-3.91,1.51c-2.81-1.17-1.94-3.52-1.41-5.38c2.1-7.41,4.19-14.89,8.41-21.45c3.89-6.05,9.04-10.49,16.8-8.84
		c11.1,2.36,17.87-2.95,22.63-12.02c5.53-10.55,11.04-21.11,17.22-31.29c9.63-15.88,21.99-19.32,37.66-9.49
		c11.36,7.13,22.96,13.33,36,16.7c4.06,1.05,7.97,2.82,11.33,5.4C350.09,171.43,352.89,172.94,350.32,176z"/>
	<path class="st203" d="M121.47,133.86c-0.88,9.25,3.55,17.24,6.42,25.51c10.19,29.35,28.41,54.55,42.53,81.88
		c1.05,2.04,6.18,4.37,0.8,7.79c-5.27,3.35-7.25-0.28-8.93-3.79c-15.13-31.79-30.17-63.62-45.1-95.51
		c-4.05-8.66-7.66-17.53-11.38-26.34c-0.56-1.32-2.89-2.53,0.54-4.11c65.47-30.04,130.88-60.22,196.25-90.46
		c26.25-12.14,26.14-12.21,40.89,12.17c13.53,22.36,27.45,44.48,40.74,66.97c10.53,17.81,15.8,37.84,22.41,57.25
		c1.56,4.59-0.17,9.13-3.88,12.4c-8.39,7.4-16.88,14.7-25.46,21.9c-1.25,1.05-2.8,4.25-4.87,0.95c-1.46-2.33-2.59-4.6,0.65-7.17
		c6.02-4.77,11.7-10.02,17.26-15.34c4.64-4.44,7.19-9.74,4.51-16.34c-2.83-17.02-10.14-32.28-18.61-47.07
		c-11.82-20.64-24.21-40.96-36.09-61.57c-4.23-7.34-9.89-13.5-14.83-20.25c-2.28-3.12-5.24-3.54-8.69-2.4
		c-4.23,1.4-8.17,3.45-12.06,5.57c-45.91,25.01-94.33,44.85-140.97,68.35c-13.14,6.62-25.8,14.05-38.81,20.86
		C120.96,127.12,120.17,130.03,121.47,133.86z"/>
	<path class="st16" d="M121.47,133.86c-8.16-5.2-2.64-7.77,2.04-10.39c46.05-25.7,94.11-47.31,141.77-69.74
		c16.23-7.64,32.04-16.2,47.99-24.44c6.58-3.39,10.91-2.56,15.53,4.22c23.43,34.32,45.1,69.64,62.53,107.41
		c2.91,6.31,5.55,13.27,3.5,20.7c-20.78-31.9-38.82-65.22-53.45-100.44c-10.37-24.96-15.98-27.29-40.88-15.88
		c-17.97,8.24-35.08,18.35-52.59,27.58C206.5,94.72,164.6,115.56,121.47,133.86z"/>
	<path class="st15" d="M350.32,176c-1.5-6.46-7.64-6.88-12.21-8.45c-13.02-4.47-25.58-9.45-37.23-17.1
		c-15.87-10.41-26.63-7.38-36.24,9.11c-5.63,9.67-10.67,19.68-16.2,29.41c-5.71,10.04-13.11,16.97-26.04,13.73
		c-5.47-1.37-9.59,1.76-12.51,5.94c-5.81,8.32-9.02,17.71-10.22,27.78c-7.47,4.82-10.54,4-10.39-6.06
		c0.15-10.2,0.54-20.09,5.4-29.17c6.23-11.65,13.87-13.74,25.32-7.48c14.71,8.04,19.58,6.18,24.84-9.96
		c4.77-14.64,9.4-29.33,17.28-42.7c9.01-15.29,19.19-17.62,33.38-7c5.93,4.44,10.92,10.14,16.29,15.31
		c3.95,3.81,8.53,5.74,13.07,1.82c6.15-5.32,12.03-3.95,18.01-0.44c12.09,7.08,21.37,17.15,29.76,28.22
		c3.17,4.18-0.6,5.06-2.47,6.96c-1.97,2.01-3.82,3.37-6.01-0.06C360.91,180.79,356.03,177.76,350.32,176z"/>
	<path class="st204" d="M394.99,295.04c-7.29-12.25-8.33-26.53-12.8-39.7c-6.15-18.12-12.65-36.04-22.56-52.55
		c-4.66-7.76-10.4-9.98-19.35-6.7c-63.28,23.19-125.71,48.47-187.84,74.56c-10.14,4.26-20.36,8.77-31.45,10.36
		c71.68-36.16,147.73-62.32,220.44-96.14c9.51-4.42,14.97,1.94,18.98,9.35C377.56,225.88,385.87,260.61,394.99,295.04z"/>
	<path class="st205" d="M358.07,369.57c-1.37-1.92-1.13-3.69,1.08-4.53c16.54-6.26,31.61-15.22,46.35-24.83
		c1.04,3.4,0.93,5.9-3.08,7.78C387.54,354.98,372.84,362.35,358.07,369.57z"/>
	<path class="st206" d="M114.07,388.36c9.01,14.82,13.54,31.41,18.4,47.8c2.24,7.56,6.47,14.76,5.6,23.1
		C130.07,435.63,122.07,412,114.07,388.36z"/>
	<path class="st207" d="M83.46,300.6c7.3,19.71,14.66,39.4,21.84,59.15c0.9,2.48,0.9,5.3,1.32,7.96
		c-8-19.87-16.08-39.72-23.89-59.66C81.85,305.82,78.46,302.57,83.46,300.6z"/>
	<path class="st15" d="M342.07,176.49c0.53-0.16,1.07-0.33,1.59-0.49C343.13,176.16,342.6,176.32,342.07,176.49z"/>
	<path class="st204" d="M396.31,300.48c-1.39-0.92-1.4-2.07-0.57-3.36C395.93,298.23,396.12,299.35,396.31,300.48z"/>
	<path class="st204" d="M120.07,281.51c-0.6,0.29-1.2,0.59-1.81,0.88C118.86,282.09,119.46,281.8,120.07,281.51z"/>
	<path class="st191" d="M327.54,99.37c-0.42,7.13-3.43,14.66-14.74,14.75c-11.08,0.08-19.54-8.55-19.41-19.41
		c0.12-10.35,7.44-17.26,18.27-17.24C320.46,77.48,327.56,86.16,327.54,99.37z"/>
	<path class="st78" d="M147.77,444.88c-4.31-0.27-5.58-3.68-7.07-6.84c-6.24-13.19-9.18-27.42-12.77-41.41
		c-6.65-25.9-16.6-50.49-28.1-74.56c-8.69-18.18-8.14-17.71,9.82-25.58c51.76-22.7,105.25-40.96,157.6-62.13
		c24.22-9.79,49.26-17.5,72.7-29.26c8.11-4.07,12.24,2.3,15.36,8.06c12.7,23.5,21.63,48.57,29.61,73.97
		c3.35,10.67,5.43,21.73,8.48,32.5c3.19,11.27-1.69,18.09-11.1,23.5c-27.07,15.57-56.71,24.92-85.65,36
		c-47.29,18.11-94.73,35.88-139.39,60.08c-2.83,1.53-5.32,3.68-7.96,5.55C148.82,445.28,148.32,445.33,147.77,444.88z"/>
	<path class="st240" d="M147.77,444.88c0.5-0.05,1.01-0.09,1.51-0.14c3.75,2.43,6.63-0.36,9.67-1.71
		c33.89-15.04,68.29-28.76,103.42-40.63c1.04-0.35,2.2-0.36,3.3-0.52c-0.66,0.5-1.25,1.2-1.99,1.47
		c-36.38,13.51-70.04,32.83-105,49.37C149.03,457.28,147.59,452.79,147.77,444.88z"/>
	<path class="st259" d="M304.09,88.47c3.89-3.01,8.01-5.06,12.26-0.92c4.52,4.4,4.73,9.94,2.4,15.33c-1.68,3.9-5.11,4.98-9.14,2.97
		c-0.18-0.66-0.73-1.37-0.6-1.95C310.3,97.8,307.55,93.03,304.09,88.47z"/>
	<path class="st260" d="M304.09,88.47c8.9,3.55,8.33,10.11,5.52,17.38C300.28,101.69,298.13,94.93,304.09,88.47z"/>
	<path class="st13" d="M142.9,422.61c-9.36-35.68-19.07-71.25-36.45-104.11c-3.8-7.19-5.77-10.64,5.36-15.09
		c40.29-16.12,80.81-31.64,121.18-47.52c35.81-14.09,72.46-26.1,107.26-42.69c4.16-1.98,6.2-0.58,7.84,2.63
		c17.62,34.71,30.88,70.97,38.39,109.24c0.78,3.98-0.86,6.99-4.17,8.84c-7.93,4.44-15.73,11.36-24.1,12.22
		c-10.45,1.07-10.66-11.98-15.62-18.54c-7.74-10.25-14.87-20.94-24.15-29.93c-13.76-13.33-25.87-11.08-34.05,6.35
		c-5.9,12.55-7.05,26.02-7.4,39.63c-0.05,1.99-0.41,3.97-0.62,5.96c-1.12-1.6-2.42-3.1-3.34-4.81
		c-7.97-14.78-15.5-29.82-23.94-44.33c-5.04-8.67-11.13-17.92-22.75-17.35c-12.12,0.6-17.38,10.62-22.18,20.11
		c-10.71,21.2-11,44.08-10.44,67.08c0.05,2.17-0.38,4.35-0.59,6.53c-1.42-1.46-2.95-2.84-4.25-4.41c-5.37-6.49-10.7-13-17.88-17.63
		c-5.03-3.25-10.36-4.38-15.87-1.36c-13.26,7.26-20.97,46.98-11.49,58.85C146.5,415.94,147.35,419.47,142.9,422.61z"/>
	<path class="st15" d="M142.9,422.61c0.25-3.45,0.5-6.89,0.75-10.34c3.68-0.28,6.44-0.97,4.96-5.94
		c-4.25-14.31-0.07-27.67,5.57-40.61c3.12-7.16,8.35-8.21,14.59-3.24c7.58,6.03,13.16,13.84,19.29,21.18
		c2.77,3.31,4.61,9.49,10.5,7.17c5.36-2.11,3.13-7.69,3-11.87c-0.66-22.9-1.91-45.89,7.36-67.64c3.62-8.5,6.85-19.33,17.32-20.17
		c10.46-0.83,14.6,9.78,18.9,17.5c9.3,16.71,17.65,33.95,26.67,50.82c2.05,3.84,3.34,10.27,9.15,9.01
		c6.22-1.34,3.87-7.65,3.89-11.96c0.09-16.34-0.83-32.77,6.02-48.26c6-13.56,12.4-14.78,23-4.39
		c13.32,13.06,22.85,28.87,32.19,44.79c1.78,3.03,1.54,3.16-10.19,7.37c-4.01-0.5-5.8-3.68-7.66-6.6
		c-5.53-8.65-11.04-17.3-16.72-25.85c-1.13-1.7-2.09-4.1-4.51-3.89c-2.75,0.23-3.45,2.9-4.2,5.05c-4.29,12.28-4.36,25.19-5.42,37.95
		c-0.23,2.78-0.07,5.58-0.99,8.27c-7.95,2.94-15.9,5.87-23.85,8.81c-4.55-1.79-6.33-6.09-8.57-9.83
		c-7.91-13.24-16.01-26.35-24.93-38.94c-1.08-1.52-2.13-3.09-3.39-4.46c-2.61-2.85-4.65-7.59-9.03-6.74
		c-4.85,0.95-6.03,6.05-7.31,10.32c-2.96,9.92-3.9,20.19-4.49,30.43c-0.72,12.57-2.3,25.12-1.55,37.76
		c0.13,2.14-0.37,4.17-1.04,6.17c-5.05,2.09-10.1,4.17-15.15,6.26c-3.5-0.6-4.73-3.5-6.23-6.12c-5.74-9.97-12.26-19.32-21.09-26.86
		c-5.14-4.39-6.71-3.94-8.19,2.69c-2.48,11.12-2.44,22.18,0.95,33.21c1.25,4.09,3.74,8.26,1.17,12.78c-1.52,1.03-3.14,1.92-4.53,3.1
		C149.05,438.19,144.43,434.06,142.9,422.61z"/>
	<path class="st13" d="M212.25,404.49c-3.26-16.95,0.16-33.8,1.07-50.66c0.57-10.67,1.5-21.52,6.48-31.31
		c3.56-7,7.76-9.49,13.97-1.81c14.91,18.41,26.3,39.07,38.77,59.06C252.45,388.01,232.35,396.25,212.25,404.49z"/>
	<path class="st13" d="M163.72,426.46c-4.06-14.77-8.5-29.5-4.64-45.1c0.93-3.77,0.75-9.4,4.16-10.25c2.43-0.61,6.3,3.73,9.26,6.18
		c10.98,9.09,17.08,21.81,24.61,33.47C185.98,415.99,174.85,421.22,163.72,426.46z"/>
	<path class="st14" d="M296.4,370.97c-1.97-17.24-0.28-34.14,5.84-50.34c2.02-5.34,5.69-7.04,9.79-0.54
		c7.67,12.16,15.87,23.99,23.86,35.95C322.73,361.01,309.56,365.99,296.4,370.97z"/>
	<path class="st102" d="M344.32,265.52c-1.44,7.19-3.13,16.65-14.61,17.91c-9.33,1.02-17.54-11.43-16.98-25.61
		c0.2-5.09-1.3-13.37,6.31-13.37C336,244.43,344.36,251.58,344.32,265.52z"/>
	<path class="st98" d="M154.99,311.52c7.33-5.14,15.37-5.92,19.84,2.27c4.78,8.77-3.51,12.83-9.88,15.92
		c-8.67,4.21-17.33,4.11-23.68-4.4c-2.7-3.61-3.83-8.09,0.77-11.69c2.95-0.22,5.52,0.02,6.67,3.52c1.45,4.42,5.07,5.07,9.09,4.51
		c1.59-0.22,4.05-0.45,4.1-1.93c0.04-1.16-2.33-0.03-3.62-0.24C153.26,318.67,152.14,315.98,154.99,311.52z"/>
	<path class="st261" d="M154.99,311.52c-1.85,6.79,0.96,7.62,6.45,5.06c2.2-1.03,4.91-1.92,6.04,0.77c0.98,2.34-1.81,3.58-3.54,4.32
		c-7.22,3.07-14.9,6.97-17.46-5.4c-0.49-2.35-2.79-2.07-4.45-2.64C146.35,312.92,150.67,312.22,154.99,311.52z"/>
	<path class="st262" d="M325.8,253.99c7.27-0.07,10.99,3.09,10.81,9.24c-0.15,5.3-1.26,13.05-7.3,12.39
		c-7.14-0.78-8.41-8.81-9.18-15.52C319.5,254.73,322.41,253.65,325.8,253.99z"/>
</g>
</svg>
